<svg xmlns="http://www.w3.org/2000/svg" viewBox="0 0 557.25 249.2"><defs><style>.ba22f2a1-afd8-4620-b836-5a1485e02dfb{fill:#231815;}</style></defs><title>goHome</title><g id="be68e975-e1ea-4f34-886a-a516c6709c9d" data-name="レイヤー 2"><g id="a44c02ef-3c30-4d8a-8e88-e5ff3b4186c9" data-name="夕方"><path d="M80,70.2v56.33h30.13V70.2ZM92.5,104.92H87.9v-4.59h4.6Zm0-10.48H87.9V89.85h4.6ZM92.5,84H87.9v-4.6h4.6Zm10.07,21H98v-4.59h4.6Zm0-10.48H98V89.85h4.6Zm0-10.48H98v-4.6h4.6Z"/><path d="M335,70.2v56.33h30.13V70.2Zm12.46,34.72h-4.6v-4.59h4.6Zm0-10.48h-4.6V89.85h4.6Zm0-10.48h-4.6v-4.6h4.6Zm10.07,21H353v-4.59h4.6Zm0-10.48H353V89.85h4.6Zm0-10.48H353v-4.6h4.6Z"/><path d="M14.88,57.61l-.23,68.89,22.27.07.23-68.89Zm9.06,42.49H20.55V94.47H24Zm0-12.82H20.59l0-5.62H24ZM24,74.46h-3.4l0-5.62H24Zm7.35,25.66H28l0-5.62H31.4Zm.05-12.81H28l0-5.62h3.39Zm0-12.83h-3.4l0-5.62,3.4,0Z"/><path d="M260.21,33.51v93h38.72v-93Zm16,57.34h-5.9V83.26h5.9Zm0-17.31h-5.9V66h5.9Zm0-17.31h-5.9V48.64h5.9Zm12.94,34.62h-5.9V83.26h5.9Zm0-17.31h-5.9V66h5.9Zm0-17.31h-5.9V48.64h5.9Z"/><path d="M504.21,81.27v45.26h28.63V81.27Zm11.84,27.9h-4.37v-3.69h4.37Zm0-8.42h-4.37V97.06h4.37Zm0-8.43h-4.37V88.63h4.37Zm9.57,16.85h-4.37v-3.69h4.37Zm0-8.42h-4.37V97.06h4.37Zm0-8.43h-4.37V88.63h4.37Z"/><rect x="123.55" y="95.53" width="21.25" height="31"/><rect x="201" y="97.09" width="16.86" height="29.44"/><rect y="82.65" width="16.86" height="43.89"/><rect x="448" y="97.09" width="16.86" height="29.44"/><rect x="72.39" y="97.09" width="12.86" height="29.44"/><rect x="543.38" y="97.09" width="13.86" height="29.44"/><rect x="244.39" y="91.53" width="16.86" height="35"/><rect x="361.38" y="102.02" width="16.86" height="24.51"/><rect x="325.38" y="114.16" width="16.86" height="12.37"/><rect x="372.38" y="114.16" width="16.86" height="12.37"/><polygon points="187.43 72.16 187.43 49.25 146.09 49.25 146.09 126.53 201.81 126.53 201.81 72.16 187.43 72.16"/><polygon points="490.24 99 490.24 87.39 504.43 87.39 504.43 126.53 485.3 126.53 485.3 99 490.24 99"/><polygon points="138.31 111.79 121.32 94.81 121.32 94.81 118.15 91.63 114.97 94.81 97.99 111.79 101.16 114.97 105.56 110.56 105.56 126.53 130.38 126.53 130.38 110.21 135.14 114.97 138.31 111.79"/><polygon points="342.46 103.33 315.72 76.59 315.72 76.59 310.73 71.59 305.73 76.59 278.99 103.33 283.98 108.33 290.91 101.4 290.91 126.53 329.98 126.53 329.98 100.84 337.47 108.33 342.46 103.33"/><polygon points="426.17 110.07 407.19 91.09 407.19 91.09 403.65 87.55 400.1 91.09 381.13 110.07 384.67 113.61 389.59 108.7 389.59 126.53 417.31 126.53 417.31 108.3 422.62 113.61 426.17 110.07"/><polygon points="61.5 113.23 46.18 97.91 46.18 97.91 43.32 95.05 40.45 97.91 25.13 113.24 27.99 116.1 31.96 112.13 31.96 126.53 54.35 126.53 54.35 111.81 58.64 116.1 61.5 113.23"/><polygon points="77.5 113.23 62.18 97.91 62.18 97.91 59.32 95.05 56.45 97.91 41.13 113.24 43.99 116.1 47.96 112.13 47.96 126.53 70.35 126.53 70.35 111.81 74.64 116.1 77.5 113.23"/><polygon points="555.05 114.86 541.6 101.41 541.6 101.41 539.09 98.9 536.58 101.41 523.13 114.86 525.64 117.38 529.12 113.89 529.12 126.53 548.77 126.53 548.77 113.61 552.54 117.38 555.05 114.86"/><path d="M160.22,93.66a8.9,8.9,0,0,0-8.14-12.48,8.77,8.77,0,0,0-1.15.08,8.9,8.9,0,0,0-17-.75c-.22,0-.44,0-.67,0A9.24,9.24,0,0,0,124,89.73a9.14,9.14,0,0,0,.6,3.28,10.29,10.29,0,0,0,6.82,19.29,8.32,8.32,0,0,0,5.83,2.37h.35v11.87h9.07V114.25a9,9,0,0,0,1.05.07,8.35,8.35,0,0,0,5.88-2.41,10.54,10.54,0,0,0,1.7.15,9.86,9.86,0,0,0,4.92-18.4Z"/><path d="M87.22,93.66a8.9,8.9,0,0,0-8.14-12.48,8.77,8.77,0,0,0-1.15.08,8.9,8.9,0,0,0-17-.75c-.22,0-.44,0-.67,0A9.24,9.24,0,0,0,51,89.73,9.14,9.14,0,0,0,51.6,93a10.29,10.29,0,0,0,6.82,19.29,8.32,8.32,0,0,0,5.83,2.37h.35v11.87h9.07V114.25a9,9,0,0,0,1,.07,8.35,8.35,0,0,0,5.88-2.41,10.54,10.54,0,0,0,1.7.15,9.86,9.86,0,0,0,4.92-18.4Z"/><path d="M444.49,42.77V35.29h-8.94v7.48H417.31v83.76H449V42.77ZM430.4,100.58h-4.83V95.06h4.83Zm0-12.58h-4.83V82.48h4.83Zm0-12.59h-4.83V69.89h4.83Zm0-12.58h-4.83V57.31h4.83ZM441,100.58h-4.83V95.06H441ZM441,88h-4.83V82.48H441Zm0-12.59h-4.83V69.89H441Zm0-12.58h-4.83V57.31H441Z"/><path d="M225.1,69.69V65.42h-6.93v4.27H214.7v56.84h32.56V69.69Zm-.25,39.23H221.1v-3.74h3.75Zm0-8.54H221.1V96.64h3.75Zm0-8.54H221.1V88.09h3.75Zm0-8.54H221.1V79.56h3.75Zm8,25.62h-3.74v-3.74h3.74Zm0-8.54h-3.74V96.64h3.74Zm0-8.54h-3.74V88.09h3.74Zm0-8.54h-3.74V79.56h3.74Zm8.21,25.62h-3.75v-3.74h3.75Zm0-8.54h-3.75V96.64h3.75Zm0-8.54h-3.75V88.09h3.75Zm0-8.54h-3.75V79.56h3.75Z"/><path d="M470.29,81.6V78.22H464.8V81.6h-2.74v44.93H487.8V81.6Zm-.21,31h-3v-3h3Zm0-6.75h-3v-3h3Zm0-6.75h-3v-3h3Zm0-6.75h-3v-3h3Zm6.33,20.25h-3v-3h3Zm0-6.75h-3v-3h3Zm0-6.75h-3v-3h3Zm0-6.75h-3v-3h3Zm6.49,20.25h-3v-3h3Zm0-6.75h-3v-3h3Zm0-6.75h-3v-3h3Zm0-6.75h-3v-3h3Z"/><path d="M394,117l1.26,9.55h3.59l-4-34.73.07-.11-.1-.14L386.35,16l-.76.18V0H383V16.18l-.75-.18-8.4,74.89,0,0,0,0-4.07,35.55h3.59l1.33-10.22L384.06,105Zm-7.91-14.46,5.54-6.71,1.74,15.52ZM377.51,91l6.58-9,7,9.51-7,8.49-6.66-8ZM386,79.5l3.3-4.5,1.19,10.62Zm-6.08-9.74L384,62.92l4.55,7.9-4.48,6.11L379.76,71Zm.47-4.2.84-7.52L383,61.17Zm4.69-4.35,2.25-3.74,1.07,9.5Zm-.51-44.79-.26.06-.25-.06Zm-.26,14.13,2.7,24-2.94,4.88-2.51-4.36Zm-5,44.93,2.94,4-4,5.46Zm-3.95,35.18,1.61-14.34,5.12,6.2Z"/><path class="ba22f2a1-afd8-4620-b836-5a1485e02dfb" d="M312.07,246a8.05,8.05,0,0,0-2-4.94l-.72-1.51.58-.18s-2-3.8-2.68-4.79-12.11-22.26-12.11-22.26a84.81,84.81,0,0,0-2.91-9.79,25,25,0,0,0-.19-6.57,10,10,0,0,0,3.07-2.46c1.54-2.18,14.51-13.79,13.93-15.21s-6.48-8.25-7.55-9.24-3.3-4.82-4.49-4.22c-.3.15-1.14.72-2.22,1.49-1.7-1.75-5.49-5.61-8.54-8.4a25.27,25.27,0,0,0-5.89-6,11.57,11.57,0,0,0-.71-2.48,3.93,3.93,0,0,0-1.49.54,8.15,8.15,0,0,1-.26-1.35c0-.6,1.29-7.77,1-8.71s-2.76-5.42-7.06-3.76c-4.86-.83-9.87,3.82-7,7.18a25.36,25.36,0,0,0,.48,3.09,6.79,6.79,0,0,1,.42,1.12,13.11,13.11,0,0,1-.29,2.81c-.27.6.76.61,1.27.45s.77.52.77.52l.51.26s-.09.43.16.52.83,1.89,1.26,1.89,2.24-1.6,2.24-1.6l.64,1.56c-1.27.95-2.18,1.68-2.18,1.68l.7,1.83-1,17.89-1,21.7,2.11-.14-.7,6.48s-5.23,12.73-5.64,14.23c-1.26,4.65-3.95,14.23-3.95,14.65s-2.81,6.62-2.81,6.62l1.08.51-.37.34s-4.23,1.26-6.34.7-4.37-1.41-5.22-1,0,3,1.83,4.65,6.06,2.26,6.06,2.26,1.41.28,1.13,1.41,7,1.83,7.47,1,.56-3.8.7-4.51c.07-.35.29-1.28.48-2.12l1.21.58L268,237s5.35-15.36,5.49-15.78,6.9-13.53,6.9-13.53l6.34,9.16s4.42,7.47,5.55,8.31S299.44,236,299.44,236s1.64,5.22,1.64,5.64c0,.09.45,0,1.13-.12l-.28,1.67s-3.52,2.25-4.65,2.25-1.13,2.26-1.13,2.26a15,15,0,0,0,5.22.7,8.48,8.48,0,0,0,5.21-1.41,2.3,2.3,0,0,0,.84.71,33.18,33.18,0,0,0,4.65-1S312.35,247.27,312.07,246Zm-18.29-78.94c-1.45,1.05-3.12,2.28-4.51,3.31-.68-3.94-1.23-7.19-1.43-8.62a6.14,6.14,0,0,0-.15-.72C290.16,163.34,292.59,165.84,293.78,167.07Z"/></g></g></svg>