<svg xmlns="http://www.w3.org/2000/svg" viewBox="0 0 491.99 268.47"><defs><style>.b27122fd-444a-4d0d-bd33-9412f2ef43d6{fill:#221714;}.b537858a-40c3-4f72-b897-1e96bd4a188e{fill:#231815;}</style></defs><title>lunch</title><g id="bb28e5c5-78ab-4a60-9ff7-f7552ecf62d1" data-name="レイヤー 2"><g id="fb3b08b5-8a51-466c-a948-85cbe040ea78" data-name="昼"><path class="b27122fd-444a-4d0d-bd33-9412f2ef43d6" d="M108.49,59.4h-.87V55.9H106v3.5H103.1v2.91h-2.81v1.75h.87v1h-.87v1.75h.87v1h-.87v1.76h.87v1h-.87v1.75h.87v1h-.87V75h.87v1h-.87v1.75h.87v.06H99.52a3.49,3.49,0,0,0-6.58,0h-2v1.55h.51V90.17l-4.06-2.82L82.05,91v.86c-.51-2.75-.92-5.44-1.22-7.87-.27-2.15-.47-4.09-.59-5.71,0-.44-.07-.86-.09-1.24h5.49l-5.59-4.74V68.66h5.59l-5.59-4.73V60.45l2.56-3.52H71.07l2.56,3.52v3.48L68,68.66h5.59v3.68L68,77.08h5.49c-.06.92-.14,2-.26,3.19a133.83,133.83,0,0,1-2.11,14l-.77-.63V91.26l.6.5v-1L66.8,87.35l-4.18,3.42v1l.6-.5v2.36l-.71.58V81.41H61.07V78.76H56.56v2.65H51.25V67.48h-1.4V65.39h1.4V64h-8.7v1.39h1.39v2.09H42.55V85.91H37.68V63.3h-9v1.4h2.09v2.43H28.64v19l-3.74-1.9-3.65,1.85V79.38H19.64V76.43h-5v2.95H8.12v4.43H6.05v2.07H8.12v2.36H6.56l-1.1-.89L1.27,90.77v.4H0v8.3H73.38V97.06l.61.49v-1l-.32-.26L76.76,94h.12l3.56,2.7v2.82h29.77V97.72h-.87v-1h.87V95h-.87V94h.87V92.27h-.87v-1h.87V89.54h-.87v-1h.87V86.82h-.87v-1h.87V84.1h-.87v-1h.87V81.37h-.87v-1h.87V78.65h-.87v-1h.87V75.93h-.87V75h.87V73.2h-.87v-1h.87V70.48h-.87v-1h.87V67.75h-.87v-1h.87V65h-.87v-1h.87V62.31h-1.72ZM6.05,91.46V93H4.68V91.46Zm0,5.92H4.68V95.86H6.05Zm7.15-.27H11.84V95.63H13.2Zm0-4.71H11.84V90.92H13.2Zm0-4.7H11.84V86.22H13.2Zm0-4.71H11.84V81.51H13.2Zm3.72,14.12H15.56V95.63h1.36Zm0-4.71H15.56V90.92h1.36Zm0-4.7H15.56V86.22h1.36Zm0-4.71H15.56V81.51h1.36Zm7,9.84H22.55v-2h1.36Zm1.67,5H24.22v-2h1.36Zm1.67-5H25.89v-2h1.36Zm7.83-23.36h.84v2h-.84Zm0,5.1h.84v2h-.84Zm0,5.1h.84v2h-.84ZM32.8,69.47h.84v2H32.8Zm0,5.1h.84v2H32.8Zm0,5.1h.84v2H32.8Zm-2.1-10.2h.84v2H30.7Zm0,5.1h.84v2H30.7Zm0,5.1h.84v2H30.7Zm0,5.11h.84v2H30.7Zm1.93,11.87H31.12V95.44h1.51Zm0-2.69H31.12V92.75h1.51Zm0-2.68H31.12V90.07h1.51Zm.17-6.5h.84v2H32.8ZM35,96.65H33.44V95.44H35ZM35,94H33.44V92.75H35Zm0-2.68H33.44V90.07H35Zm.12-6.5h.84v2h-.84Zm2.2,11.87H35.76V95.44h1.52Zm0-2.69H35.76V92.75h1.52Zm0-2.68H35.76V90.07h1.52Zm2.32,5.37H38.09V95.44H39.6Zm0-2.69H38.09V92.75H39.6Zm0-2.68H38.09V90.07H39.6Zm2.33,5.37H40.41V95.44h1.52Zm0-2.69H40.41V92.75h1.52Zm0-2.68H40.41V90.07h1.52Zm6.92,2.08V94H47.38V92.75H48.9v.61Zm-1.47-2.08V90.07h1.47v1.17h0v0Zm-.22-21.81H48v2h-.84Zm0,5.1H48v2h-.84Zm0,5.1H48v2h-.84Zm-2.1-10.2h.84v2h-.84Zm0,5.1h.84v2h-.84Zm0,5.1h.84v2h-.84Zm0,5.11h.84v2h-.84Zm-.81,11.87H42.74V95.44h1.51Zm0-2.69H42.74V92.75h1.51Zm0-2.68H42.74V90.07h1.51Zm2.32,5.37H45.06V95.44h1.51Zm0-2.69H45.06V92.75h1.51Zm0-2.68H45.06V90.07h1.51Zm.59-6.5H48v2h-.84ZM48.9,96.65H47.38V95.44H48.9Zm6.38.7H54.05V96h1.23Zm0-4.23H54.05V91.79h1.23Zm0-4.23H54.05V87.56h1.23Zm0-4.24H54.05V83.32h1.23Zm3.35,12.7H57.4V96h1.23Zm0-4.23H57.4V91.79h1.23Zm0-4.23H57.4V87.56h1.23Zm0-4.24H57.4V83.32h1.23Zm7,13.49H64.3V96.77h1.37Zm1.82-5.62H66.12V91.16h1.37Zm1.82,5.62H67.94V96.77h1.37ZM80.38,86.5c.15,1,.31,2.13.5,3.24l-3.61-3h3.11ZM78.53,60.72l-1.72,1.22-1.72-1.22Zm-3.09-.84L76.81,59l1.38.88Zm1.87,19.71,2.08-2.17c0,.66.1,1.39.17,2.17Zm2.3.49a2.46,2.46,0,0,1,0,.28c.08.73.16,1.51.25,2.32l-2.49-2.6Zm-.94-15.49-1.86,1.32L75,64.59ZM75,63.75l1.79-1.26,1.79,1.26Zm4.26,1v2.94L77.2,66.18Zm-.54,3.11H74.88l1.93-1.37Zm.11.84-2,1.44-2-1.44Zm.43.25v2.94L77.2,70.38ZM79,72.17h-4.3l2.15-1.52Zm-.22.84-1.93,1.37L74.87,73Zm-.07,3.23H75l1.86-1.32Zm.45.84-2.31,2.4-2.31-2.4ZM77.2,74.65l2.08-1.47v1.37c0,.43,0,1,0,1.6Zm2.08-11L77.2,62.21l2.08-1.47Zm-2.86-1.47-2,1.43V60.79Zm0,4-2,1.43V64.75Zm0,4.2-2,1.42V69Zm0,4.27-2.06,1.46c0-.61,0-1.14,0-1.56V73.22Zm-.11,4.94H74.12c0-.41.07-.82.1-1.2s0-.62.06-.91Zm-.08.49-2.42,2.53c.1-.89.19-1.74.26-2.53Zm.58,0L80,83.4a1.49,1.49,0,0,0,0,.21L76.92,86.2H76.7l-3-2.54c0-.11,0-.22,0-.33Zm3.52,6.09H77.61l2.45-2.06C80.14,84.81,80.23,85.5,80.33,86.2Zm3.06-10H80.1v-.1c0-.63,0-1.17,0-1.59V73.41Zm0-8.42H80.05V65ZM81,57.76l-1.53,2.12H79l-1.78-1.14,1.52-1Zm-3.09,0-1.11.71-1.1-.71Zm-5.26,0h2.22l1.52,1-1.8,1.14h-.4ZM70.29,67.82,73.63,65v2.83Zm0,8.42,3.34-2.83v1.14c0,.42,0,1,0,1.59v.1Zm3.33,7.94,2.39,2H73.35C73.44,85.51,73.53,84.84,73.62,84.18Zm-.34,2.51h3.07l-3.54,3C73,88.66,73.14,87.66,73.28,86.69Zm0,9.33-1.48-1.21L72,94h4Zm-1.2-2.56q.27-1.38.51-2.73l3.61,2.73Zm4.7-.11-4-3.07,4-3.4,4,3.4ZM81,90.69c.16.91.34,1.84.52,2.77H77.4ZM77.62,94h3.93l-1.11.6v1.54Zm7.26,3.41H83.81V95.93h1.07Zm1.47-4.3H85.29V91.63h1.06Zm1.56,4.3H86.84V95.93h1.07Zm1.56-4.3H88.4V91.63h1.07ZM91,97.36H89.88V95.93H91Zm1.94-17.43h1v1.45h-1Zm0,3.36h1v1.46h-1Zm0,3.36h1v1.46h-1Zm0,3.37h1v1.46h-1Zm1,3.36v.92l-1-.52v-.4Zm2.85,4.83h-1V96.75h1Zm0-3.37h-1V93.38h1Zm0-3.36h-1V90h1Zm0-3.37h-1V86.65h1Zm0-3.36h-1V83.29h1Zm0-3.37h-1V79.93h1Zm0-3.85h-1V76.6h1Zm2.86,20.68h-1V96.75h1Zm0-3.37h-1V93.38h1Zm0-3.36h-1V90h1Zm0-3.37h-1V86.65h1Zm0-3.36h-1V83.29h1Zm0-3.37h-1V79.93h1Zm1.59,16.34H101v-1h.14Zm0-2.73H101V94h.14Zm0-2.72H101v-1h.14Zm0-2.73H101v-1h.14Zm0-2.72H101v-1h.14Zm0-2.72H101v-1h.14Zm0-2.73H101v-1h.14ZM106,96.2h-2V94.57h2Zm0-4.87h-2V89.71h2Zm0-4.87h-2V84.84h2Zm0-4.86h-2V80h2Zm0-4.86h-2V75.11h2Zm0-4.87h-2V70.25h2ZM106,67h-2V65.38h2Z"/><polygon class="b27122fd-444a-4d0d-bd33-9412f2ef43d6" points="271.7 86.36 270.87 86.36 270.87 86.77 271.7 86.77 272.12 86.77 272.12 86.36 272.12 85.53 271.7 85.53 271.7 86.36"/><path class="b27122fd-444a-4d0d-bd33-9412f2ef43d6" d="M489.91,91.17V86.89L483,84.52v2l-6-2v2l-5.71-1.95V70.05L469,63.8V55.15h-1.77V56.6H463V55.15H461.2V63.8l-2.29,6.25V84.74h-6.84c.6-17,.24-31.4-8.54-39.62-7.92,7.42-9,19.87-8.69,34.7h-4.35V73.9h-9.12V61.26a20.1,20.1,0,0,0-4-2.14V53c-8.55,1.07-12.83,6.41-12.83,9.08V88.33h-4.07v.15h-.12v-2h1.75V84.15h-1.75v-2h1.75V79.82h-1.75v-2h1.75V75.5h-1.75v-2h1.75V71.17h-1.75v-2h1.75V66.84h-4.93V60.18h-6.95v6.66h-4.93v2.33H387v2h-1.75V73.5H387v2h-1.75v2.33H387v2h-1.75v2.33H387v2h-1V82.87h-14v1.85h.79v8.16h-4.08V46.79h-2.4V56.6l-10.37,6.16V77.48h-4.25l-.41-2a1.59,1.59,0,1,0-1.91,0l-.42,2h-9.51v2.37h1.58v4.61h-1.58v2.37h1.58v.26h-8.77a74.17,74.17,0,0,1-1.1-7.84h1.56l.55-6.42h-3.56A109.87,109.87,0,0,1,329,59.67h1.06v-4.1h-1.67V47h-1.23V37.63h-.77V47h-1.23v8.56h-1.66v4.1h1.05a109.87,109.87,0,0,1-.83,13.16h-3.56l.56,6.42h1.55a80.7,80.7,0,0,1-2,12.19V86.68h-7.85V73.77l-1.81-1.51V70.44l-1.21-1a3.27,3.27,0,0,0-6.45,0l-1.21,1v1.82l-1.82,1.51V89.13l-2.18-1.78-2.42,2-.76-23.28h1.19l1.8-8.78h-3.28L293.34,30h.91l1.25-6.13h-2.36l-.36-11.09h-1.26V5.47h.55V3.34h-.55V0H290.2V3.34h-.55V5.47h.55v7.29h-1.26l-.36,11.09h-2.37L287.47,30h.91l-.89,27.29h-3.28l1.8,8.78h1.19l-.69,21.3h-5.24v1.58h-5.42V82.61h-8.16v6.32h-5.1V82.61h-7.18v-1.9l-5.14-6-5,5.84-5-5.84-5.14,6V91.93h-1.9V70.63h-14V42.27h-3.21V40.58h3.21V39.23H204.4v1.35h3.21v1.69H204.4v52l-.84-.69V91.26l.6.5v-1L200,87.35l-4.19,3.42v1l.61-.5v2.36l-3.17,2.59V67.6l-7.79-2.67-5.34,2.26V79h-2.3l-2.38-2.74L173,79h-1.66V54.73l-5-1.73-5,1.73v4.32h-6.92V54.73l-5-1.73-5,1.73v33.1h-2.33V74l-9.48-5v5.39h-1.12V47h-2V43.46H127.9V40.84h-2.15V32.07h-1.07v8.77h-2.15v2.62h-1.74V47h-2V69.6c-.19-.43-.4-.84-.62-1.23h-4.91c-2.66,4.5-2.66,12.69-2.66,15.14v16h82.64V97.2l.17-.14v2.41h95.09l2.37-6.1,2.37,6.1h30s.73-6.87,3.51-6.87c1.75,0,2.69,2.75,3.14,4.77v2.1H492v-8.3ZM293.39,25H294v1.14h-.57Zm-5.06,1.14h-.57V25h.57ZM118,75.69h.82v1.79H118Zm0,4.13h.82v1.8H118ZM118,84h.82v1.79H118Zm0,4.13h.82v1.79H118Zm0,4.13h.82V94H118Zm-4.52,5.93h-.92V96.36h.92Zm0-4.13h-.92v-1.8h.92Zm0-4.14h-.92V88.09h.92Zm0-4.13h-.92V84h.92Zm0-4.13h-.92v-1.8h.92Zm0-4.14h-.92V75.69h.92Zm2.72,20.67h-.92V96.36h.92Zm0-4.13h-.92v-1.8h.92Zm0-4.14h-.92V88.09h.92Zm0-4.13h-.92V84h.92Zm0-4.13h-.92v-1.8h.92Zm0-4.14h-.92V75.69h.92Zm0-4.13h-.92V71.56h.92Zm1.8,24.8V96.36h.82v1.79Zm4.5-1.5h-1.13V93.58h1.13Zm0-7.07h-1.13V86.51h1.13Zm0-7.07h-1.13V79.45h1.13Zm0-7.07h-1.13V72.38h1.13Zm0-7.07h-1.13V65.31h1.13Zm0-7.07h-1.13V58.24h1.13Zm0-7.07h-1.13V51.17h1.13Zm3.32,42.42h-1.13V93.58h1.13Zm0-7.07h-1.13V86.51h1.13Zm0-7.07h-1.13V79.45h1.13Zm0-7.07h-1.13V72.38h1.13Zm0-7.07h-1.13V65.31h1.13Zm0-7.07h-1.13V58.24h1.13Zm0-7.07h-1.13V51.17h1.13Zm3.32,42.42H128V93.58h1.12Zm0-7.07H128V86.51h1.12Zm0-7.07H128V79.45h1.12Zm0-7.07H128V72.38h1.12Zm0-7.07H128V65.31h1.12Zm0-7.07H128V58.24h1.12Zm0-7.07H128V51.17h1.12Zm4.65,43.16h-1.16V95.08h1.16Zm0-5.32h-1.16V89.76h1.16Zm0-5.32h-1.16V84.44h1.16Zm0-5.33h-1.16V79.11h1.16Zm3.42,16H136V95.08h1.16Zm0-5.32H136V89.76h1.16Zm0-5.32H136V84.44h1.16Zm0-5.33H136V79.11h1.16Zm3.42,16h-1.16V95.08h1.16Zm0-5.32h-1.16V89.76h1.16Zm0-5.32h-1.16V84.44h1.16Zm0-5.33h-1.16V79.11h1.16Zm10,14.43h-1.57V92.71h1.57Zm0-7.17h-1.57V85.54h1.57Zm0-7.17h-1.57V78.37h1.57Zm0-7.18h-1.57V71.2h1.57Zm0-7.17h-1.57V64h1.57Zm.6-8.6h-3.35V56.34l1.67-.58,1.68.58Zm4.64,37.29H154.3V92.71h1.57Zm0-7.17H154.3V85.54h1.57Zm0-7.17H154.3V78.37h1.57Zm0-7.18H154.3V71.2h1.57Zm0-7.17H154.3V64h1.57Zm5.79,28.69h-1.57V92.71h1.57Zm0-7.17h-1.57V85.54h1.57Zm0-7.17h-1.57V78.37h1.57Zm0-7.18h-1.57V71.2h1.57Zm0-7.17h-1.57V64h1.57Zm5.24,28.69h-1.57V92.71h1.57Zm0-7.17h-1.57V85.54h1.57Zm0-7.17h-1.57V78.37h1.57Zm0-7.18h-1.57V71.2h1.57Zm0-7.17h-1.57V64h1.57Zm1.19-8.6h-3.35V56.34l1.67-.58,1.68.58Zm4.29,37.36h-.91V94.1h.91Zm0-4.1h-.91V90h.91Zm0-4.1h-.91V85.9h.91Zm0-4.1h-.91V81.8h.91Zm3.5,12.3H175V94.1h.92Zm0-4.1H175V90h.92Zm0-4.1H175V85.9h.92Zm0-4.1H175V81.8h.92Zm3.49,12.3h-.91V94.1h.91Zm0-4.1h-.91V90h.91Zm0-4.1h-.91V85.9h.91Zm0-4.1h-.91V81.8h.91Zm8.16,12.44h-.82V94l.82,0Zm0-4.62-.82-.06V89.27l.82.09Zm0-4.62-.82-.12V84.6l.82.14Zm0-4.62-.82-.18v-2.1l.82.2Zm0-4.63-.82-.23v-2.1l.82.26Zm0-4.62-.82-.29v-2.1l.82.31Zm2.28,23.11h-.75V94l.75,0Zm0-4.46-.75,0v-2l.75.08Zm0-4.46-.75-.1V85l.75.13Zm0-4.45-.75-.16v-2l.75.19Zm0-4.46-.75-.22V76l.75.24Zm0-4.46-.75-.27v-2l.75.3Zm2.13,22.29h-.7v-2l.7,0Zm0-4.3-.7-.05v-2l.7.08Zm0-4.31-.7-.1v-2l.7.12Zm0-4.31-.7-.15V81l.7.18Zm0-4.3-.7-.2v-2l.7.22Zm0-4.31-.7-.25v-2l.7.28Zm6.9,23.61h-1.37V96.77h1.37Zm1.82-5.62H199.3V91.16h1.36Zm1.82,5.62h-1.36V96.77h1.36Zm6.38-3h-1.21v-3.3h1.21Zm0-7.61h-1.21V84.19h1.21Zm0-7.62h-1.21v-3.3h1.21Zm0-7.61h-1.21V69h1.21Zm0-7.62h-1.21v-3.3h1.21Zm0-7.61h-1.21V53.73h1.21Zm0-7.62h-1.21v-3.3h1.21Zm3.58,45.69h-1.22v-3.3h1.22Zm0-7.61h-1.22V84.19h1.22Zm0-7.62h-1.22v-3.3h1.22Zm0-7.61h-1.22V69h1.22Zm0-7.62h-1.22v-3.3h1.22Zm0-7.61h-1.22V53.73h1.22Zm0-7.62h-1.22v-3.3h1.22ZM216,95.11H214.8v-3.3H216Zm0-7.61H214.8V84.19H216Zm0-7.62H214.8v-3.3H216Zm0-7.61H214.8V69H216Zm0-7.62H214.8v-3.3H216ZM216,57H214.8V53.73H216Zm0-7.62H214.8v-3.3H216ZM224.71,97h-2V95h2Zm0-6.91h-2v-2h2Zm0-6.91h-2v-2h2Zm0-6.9h-2v-2h2ZM228.59,97h-2V95h2Zm0-6.91h-2v-2h2Zm0-6.91h-2v-2h2Zm0-6.9h-2v-2h2Zm12.48,17.46H239.3V91.86h1.77Zm0-5.77H239.3V86.09h1.77Zm5.09,5.77h-1.78V91.86h1.78Zm0-5.77h-1.78V86.09h1.78Zm5.09,5.77h-1.78V91.86h1.78Zm0-5.77h-1.78V86.09h1.78ZM265,96.76h-1.13v-2H265Zm0-3.86h-1.13v-2H265Zm3.67,3.86h-1.13v-2h1.13Zm0-3.86h-1.13v-2h1.13Zm3.66,3.86h-1.12v-2h1.12Zm0-3.86h-1.12v-2h1.12ZM271.77,88a1.67,1.67,0,1,1,1.67-1.67A1.67,1.67,0,0,1,271.77,88ZM276,96.76h-1.13v-2H276Zm0-3.86h-1.13v-2H276Zm3.67,3.86h-1.13v-2h1.13Zm0-3.86h-1.13v-2h1.13Zm7.68-32.29h-.79V59h.79Zm1,2.9h-.79V61.93h.79ZM292,25h.57v1.14H292Zm-1.4,0h.57v1.14h-.57Zm-.67,2.09h.57v1.14h-.57ZM289.17,25h.57v1.14h-.57Zm-.67,2.09h.57v1.14h-.57Zm.8,33.5h-.79V59h.79Zm1,2.9h-.79V61.93h.79Zm.91-2.9h-.79V59h.79Zm.07-33.5h.57v1.14h-.57Zm1,36.4h-.79V61.93h.79Zm.92-2.9h-.79V59h.79Zm.09-32.36h-.57V27.11h.57ZM294.37,59h.79v1.58h-.79Zm-.92,2.9h.79v1.58h-.79Zm4.84,35.45h-1.37V95.86h1.37Zm0-4.4h-1.37V91.46h1.37Zm5,3h-.91V94.36h.91Zm0-4.33h-.91V90h.91Zm0-4.33h-.91V85.7h.91Zm0-4.32h-.91V81.38h.91Zm0-4.33h-.91V77.05h.91ZM306.59,96h-.91V94.36h.91Zm0-4.33h-.91V90h.91Zm0-4.33h-.91V85.7h.91Zm0-4.32h-.91V81.38h.91Zm0-4.33h-.91V77.05h.91Zm0-4h-.91V73.1h.91ZM309.93,96H309V94.36h.91Zm0-4.33H309V90h.91Zm0-4.33H309V85.7h.91Zm0-4.32H309V81.38h.91Zm0-4.33H309V77.05h.91Zm13.57-1H322v-1.2h1.47Zm0-2.22H322v-1.2h1.47Zm4.91-18.46h.86v1.33h-.86Zm-4.15,1.33V57.06h.86v1.33Zm1.91,19.35H324.7v-1.2h1.47Zm0-2.22H324.7v-1.2h1.47Zm1-17.13h-.87V57.06h.87Zm1.63,19.35h-1.46v-1.2h1.46Zm0-2.22h-1.46v-1.2h1.46Zm1.2-1.2h1.47v1.2H330Zm0,2.22h1.47v1.2H330Zm16.68,20.1H345V95h1.67Zm0-6.78H345V88.19h1.67Zm0-6.78H345V81.41h1.67Zm3.92-7.32a1.85,1.85,0,0,0,.42-.11l.37,1.83h-.79Zm-.79-.11a1.91,1.91,0,0,0,.41.11v1.72h-.79Zm1.63,21H349.8V95h1.67Zm0-6.78H349.8V88.19h1.67Zm0-6.78H349.8V81.41h1.67Zm3.9-3.23h.69v4.61h-.69Zm.69,7v1.5h-.69v-1.5Zm3.79,10.43h-.91V94.52h.91Zm0-6.08h-.91V88.45h.91Zm0-6.07H358.8V82.37h1.05Zm0-6.08H358.8V76.3h1.05Zm0-6.07H358.8V70.22h1.05Zm0-6.08H358.8V64.15h1.05ZM363,97.26h-1.06V94.52H363Zm0-6.08h-1.06V88.45H363Zm0-6.07h-1.06V82.37H363ZM363,79h-1.06V76.3H363ZM363,73h-1.06V70.22H363Zm0-6.08h-1.06V64.15H363Zm3.12,30.38H365V94.52h1.06Zm0-6.08H365V88.45h1.06Zm0-6.07H365V82.37h1.06Zm0-6.08H365V76.3h1.06Zm0-6.07H365V70.22h1.06Zm0-6.08H365V64.15h1.06Zm12.19,26.5h-1.49v-.5h-.06V91.56h1.55Zm0-3.95h-1.55V87.61h1.55Zm3.24,3.95H380V91.56h1.55Zm0-3.95H380V87.61h1.55ZM387,97.14h-1.75v-2H387Zm0-4.33h-1.75v-2H387Zm0-4.33h-1.75v-2H387Zm3.18,8.66H388v-2h2.19Zm0-4.33H388v-2h2.19Zm0-4.33H388v-2h2.19Zm0-4.33H388v-2h2.19Zm0-4.33H388v-2h2.19Zm0-4.32H388v-2h2.19Zm0-4.33H388v-2h2.19Zm10.13,19.64h.12v2h-.12ZM394.43,64.4H393v-2h1.47Zm4.93,32.74h-2.19v-2h2.19Zm0-4.33h-2.19v-2h2.19Zm0-4.33h-2.19v-2h2.19Zm0-4.33h-2.19v-2h2.19Zm0-4.33h-2.19v-2h2.19Zm0-4.32h-2.19v-2h2.19Zm0-4.33h-2.19v-2h2.19Zm1,26v-2h.12v2Zm8.8-1.44H407.6V92.85h1.55Zm0-6.56H407.6V86.29h1.55Zm0-6.56H407.6V79.73h1.55Zm0-6.56H407.6V73.17h1.55Zm0-6.56H407.6V66.61h1.55Zm0-6.56H407.6V60.05h1.55Zm4.58,32.8h-1.55V92.85h1.55Zm0-6.56h-1.55V86.29h1.55Zm0-6.56h-1.55V79.73h1.55Zm0-6.56h-1.55V73.17h1.55Zm0-6.56h-1.55V66.61h1.55Zm0-6.56h-1.55V60.05h1.55Zm4.58,32.8h-1.55V92.85h1.55Zm0-6.56h-1.55V86.29h1.55Zm0-6.56h-1.55V79.73h1.55Zm0-6.56h-1.55V73.17h1.55Zm0-6.56h-1.55V66.61h1.55Zm28.71-10h1.26v2.69H447Zm0,5.85h1.26V68H447Zm0,5.85h1.26v2.69H447Zm0,5.86h1.26v2.68H447Zm-7.28,20.24h-1.26V94.6h1.26Zm0-5.85h-1.26V88.75h1.26Zm0-5.85h-1.26V82.9h1.26Zm0-5.86h-1.26V77.05h1.26Zm0-5.85h-1.26V71.19h1.26Zm0-5.85h-1.26V65.34h1.26Zm0-5.85h-1.26V59.49h1.26Zm4.43,35.11h-1.26V94.6h1.26Zm0-5.85h-1.26V88.75h1.26Zm0-5.85h-1.26V82.9h1.26Zm0-5.86h-1.26V77.05h1.26Zm0-5.85h-1.26V71.19h1.26Zm0-5.85h-1.26V65.34h1.26Zm0-5.85h-1.26V59.49h1.26Zm0-5.85h-1.26V53.64h1.26Zm4.11,41H447V94.6h1.26Zm0-5.85H447V88.75h1.26Zm0-5.85H447V82.9h1.26v2.69Zm14.3,11.25h-1v-2h1Zm0-4.7h-1v-2h1Zm0-4.7h-1v-2h1Zm0-4.69h-1v-2h1Zm0-4.7h-1V76h1Zm0-4.7h-1v-2h1Zm3,23.49h-1v-2h1Zm0-4.7h-1v-2h1Zm0-4.7h-1v-2h1Zm0-4.69h-1v-2h1Zm0-4.7h-1V76h1Zm0-4.7h-1v-2h1Zm0-4.69h-1v-2h1Zm0-6.28h-1v-2h1Zm3,34.46h-1v-2h1Zm0-4.7h-1v-2h1Zm0-4.7h-1v-2h1Zm0-4.69h-1v-2h1Zm0-4.7h-1V76h1Zm0-4.7h-1v-2h1ZM476,93.45h-1.52V91.16H476Zm5.24,0h-1.52V91.16h1.52Zm5.24,0h-1.52V91.16h1.52Z"/><path class="b537858a-40c3-4f72-b897-1e96bd4a188e" d="M256.24,259.15c0,.81-1.43,3.08-.79,3.25l.64.16a21.3,21.3,0,0,0-.32,4.06,9.94,9.94,0,0,0,.63,1.63s5.91.48,6.07,0,1-.82,1-.82.63.82,2.87,1,7.66,0,8.3-.49-.48-2.6-1.12-2.6a15.52,15.52,0,0,1-5.43-2.27,8.93,8.93,0,0,1-2.23-3.58s3.55-2.88,3.55-3.53.8-7,.8-7l12.57-25.22,12.69,28.79s7.25,13.11,7.73,13.24,1.89,2.5,1.89,2.5,3.67-.2,4.56-1.39a8.16,8.16,0,0,0,6.14-1.8c1.69-1.39,6-4.07,6-5.2s-.08-1.46-1.35-1.4-9.11,0-9.6-.12-4.39-4.48-4.39-4.48-1.34-1.06-1.36-1.55S298.34,229,298,227.9s-5.63-18.19-5.63-18.19l3.33-2.06-1.9-12.4-.49-5.15h1.29v-2.16l1.56.28.11,2.11h6.3l.21-4a3.69,3.69,0,0,0,.38-1.36c.62-.32.78-1.9,1.71-1.9,1.87.16,1.09-1.27,1.09-1.27s-1.69-.43-2.9-.67V181h.75v-1.74h-.85l-.49-1.74h-6.12l-.49,1.74H295V181h.75l0,1c-.46.18-.88.35-1.22.47v-.49h-2.07l-1.12-11.71-.32-2.76-1.12-2.76-.51-.91a10.85,10.85,0,0,1,1.59-2.31c.56-.34,2.35-.11,2.69-.34s.11-1.83.11-1.83l.23-.8.22-1s.9-.23,1.12-.8-.45-2.28-.45-2.28v-3.32c1.91-.57,2.14-3.08.79-3.54-.9-1.83-9.09-5.25-13-1.14-3.37,2.05-2.25,6.28-1.8,7.54s1.69,3.88,1.69,3.88l-.3,1-.5,1s-5.26,2.76-5.9,2.92-1.92,1.62-1.92,1.62-6.67,18.78-5.42,22.1a4.49,4.49,0,0,0,2.71,2.76c1.12.33,1.92.49,1.92.49s-5.59,16.89-5.43,18,2.23,1.79,2.23,1.79l.8,1.78,2.08.17-6.64,22.1S256.24,258.34,256.24,259.15Z"/><path class="b537858a-40c3-4f72-b897-1e96bd4a188e" d="M448.35,178c0-.77-9.69-24.37-9.69-24.37l-6.44-21.09,2-.15.78-1.71s2-.62,2.17-1.7-5.27-17.2-5.27-17.2.77-.16,1.86-.47a4.35,4.35,0,0,0,2.63-2.63c1.22-3.17-5.27-21.08-5.27-21.08s-1.24-1.4-1.86-1.55-5.73-2.79-5.73-2.79l-.49-1-.28-.94s1.19-2.51,1.63-3.71,1.53-5.23-1.74-7.19c-3.82-3.92-11.77-.65-12.65,1.09-1.3.44-1.09,2.83.77,3.38v3.16s-.66,1.63-.44,2.18,1.09.76,1.09.76l.22,1,.22.77s-.22,1.52.11,1.74,2.07,0,2.61.33a9.81,9.81,0,0,1,1.54,2.2l-.5.87-1.08,2.63-.31,2.64-1.09,11.16h-2v.47c-.33-.11-.74-.27-1.18-.44l.05-1h.73v-1.66h-.83l-.48-1.66h-5.94l-.48,1.66h-.83v1.66h.73v.14c-1.17.23-2.81.64-2.81.64s-.76,1.36,1.06,1.21c.91,0,1.06,1.51,1.66,1.82a3.46,3.46,0,0,0,.36,1.29l.21,3.83h6.12l.11-2,1.51-.27v2.06h1.25l-.48,4.91-1.84,11.83,3.24,2s-5.1,16.28-5.47,17.35S401,171,401,171.49s-1.33,1.48-1.33,1.48-3.79,4.14-4.26,4.27-8.08.19-9.32.12-1.26.24-1.31,1.33,4.15,3.63,5.78,5a8.06,8.06,0,0,0,6,1.72c.87,1.13,4.43,1.33,4.43,1.33s1.36-2.26,1.84-2.39,7.51-12.63,7.51-12.63l12.32-27.46,12.21,24.06s.77,6,.77,6.66,3.45,3.37,3.45,3.37a8.45,8.45,0,0,1-2.17,3.41,15,15,0,0,1-5.27,2.17c-.62,0-1.71,2-1.08,2.48s5.88.62,8.05.46,2.79-.93,2.79-.93.78.31.93.78,5.89,0,5.89,0a9.41,9.41,0,0,0,.62-1.55,19.76,19.76,0,0,0-.31-3.88l.62-.15C449.74,181,448.35,178.78,448.35,178Z"/><path class="b537858a-40c3-4f72-b897-1e96bd4a188e" d="M139.35,223c0-.77-9.69-24.37-9.69-24.37l-6.44-21.09,2-.15.78-1.71s2-.62,2.17-1.7-5.27-17.2-5.27-17.2.77-.16,1.86-.47a4.35,4.35,0,0,0,2.63-2.63c1.22-3.17-5.27-21.08-5.27-21.08s-1.24-1.4-1.86-1.55-5.73-2.79-5.73-2.79l-.49-1-.28-.94s1.19-2.51,1.63-3.71,1.53-5.23-1.74-7.19c-3.82-3.92-11.77-.65-12.65,1.09-1.3.44-1.09,2.83.77,3.38v3.16s-.66,1.63-.44,2.18,1.09.76,1.09.76l.22,1,.22.77s-.22,1.52.11,1.74,2.07,0,2.61.33a9.81,9.81,0,0,1,1.54,2.2l-.5.87-1.08,2.63-.31,2.64-1.09,11.16h-2v.47c-.33-.11-.74-.27-1.18-.44l.05-1h.73v-1.66h-.83l-.48-1.66H94.49L94,146.76h-.83v1.66h.73v.14c-1.17.23-2.81.64-2.81.64s-.76,1.36,1.06,1.21c.91,0,1.06,1.51,1.66,1.82a3.46,3.46,0,0,0,.36,1.29l.21,3.83h6.12l.11-2,1.51-.27v2.06h1.25l-.48,4.91-1.84,11.83,3.24,2s-5.1,16.28-5.47,17.35S92,216,92,216.49,90.67,218,90.67,218s-3.79,4.14-4.26,4.27-8.08.19-9.32.12-1.26.24-1.31,1.33,4.15,3.63,5.78,5a8.06,8.06,0,0,0,6,1.72c.87,1.13,4.43,1.33,4.43,1.33s1.36-2.26,1.84-2.39,7.51-12.63,7.51-12.63l12.32-27.46,12.21,24.06s.77,6,.77,6.66,3.45,3.37,3.45,3.37a8.45,8.45,0,0,1-2.17,3.41,15,15,0,0,1-5.27,2.17c-.62,0-1.71,2-1.08,2.48s5.88.62,8.05.46,2.79-.93,2.79-.93.78.31.93.78,5.89,0,5.89,0a9.41,9.41,0,0,0,.62-1.55,19.76,19.76,0,0,0-.31-3.88l.62-.15C140.74,226,139.35,223.78,139.35,223Z"/><path class="b537858a-40c3-4f72-b897-1e96bd4a188e" d="M478.15,218.28c-.24-1-3-2.32-3.66-3.65s-3.67-12.06-4.12-12.95l-.23.1a17.28,17.28,0,0,0-2.41-5.13c-1-2.75-2.14-7.68-2.36-8.34s-1.86-10-1.86-10a43.22,43.22,0,0,0,0-4.83,9,9,0,0,0,1.87-.33c.66-.5-5.38-17-5.38-17l.7-9.18,3.92,6.66s2.29,10.53,2.94,12.55c.08.24.51.22,1.09,0a6.07,6.07,0,0,0,.2,2.11,13.15,13.15,0,0,0,3.81,4.9c1.26.74,2.22,0,1.69-.39-.37-.29-1.54-1-.94-.79s1-.64.67-1.26c.62.34,1.59-.54.78-1,1,.36,1-.8.44-1.06s-1.44-2-1.81-3a5.35,5.35,0,0,0-.78-1.25l.59-.31s-3.86-13.26-4.19-14.42a135.06,135.06,0,0,0-6.68-13.3,11.44,11.44,0,0,0-3-2.71,4,4,0,0,0,.11-1.61,1.66,1.66,0,0,0,1.26.65s-1.4-.23-.08-4.18,2.25-7.13.46-8.83a2.77,2.77,0,0,0-3.43-.58,4.35,4.35,0,0,0-3.83-2c-9-3.23-9.52,4.29-8.43,5.94a5,5,0,0,0,.16,1.65s-1.16,2.21-1,2.48.86.25,1,.45a.54.54,0,0,1,.08.46s-.12.57.25.66c.2,0-.17.33.12.57a2.08,2.08,0,0,1,.33,1c.08.41.18,1.19,1.21.9s1.55-.2,1.68.21c.07.25.21,1.29.3,2.09l-.35.1s-4.2,9.47-4.2,11c0,.44.12,1.48.28,2.74l-2.55,4.5s-6.74,7.66-8,9.06c-.15.16.07.47.48.86a5.55,5.55,0,0,0-1.62,1.09A12,12,0,0,0,431.5,168c0,1.32,1,1.75,1.05,1.16.06-.42.08-1.63.21-1.08s.93.5,1.27,0c0,.64,1.13,1,1.15.17.17,1,1.05.42,1-.12a7.52,7.52,0,0,1,1.57-2.73,5.7,5.7,0,0,0,.71-1.31c.57.36,1,.6,1,.6s3.57-4.32,6.43-7.74c-1.09,3.86-3.35,11.9-2.74,14.39.15.61.73,1.08,1.6,1.45-2,7.12-6.78,24.21-7,24.59a12.51,12.51,0,0,0-.62,2.23s-.48,1.3-1.11,2.95l-.52-.17s-3.33,12-5.14,15.53-7.91,4-8.85,4-2.68-.3-1.49,1.19,4.06,2.26,6.73,2.4c4.47.25,2.12.58,7.27-1.71l-.42,3.32,1.74.21s1.24-2.75,2.36-4.86c.47-.88-.7-3.72-.32-5.15s5.24-11.47,5.5-12.42l-.22-.08a28.45,28.45,0,0,0,2.71-7.22c.91-2.4,6.36-12.16,7.79-14.88,2,4.56,5.09,11.5,5.17,11.87a12.53,12.53,0,0,0,1,2.08s2.63,4.44,4.31,7.81l-.46.19s5.21,10.19,6,14.1c1.17,5.46-2.19,7-4.05,7.82-.87.36-2.21,1.56-.33,1.88s5,1,7.12-.67c3.51-2.78,2-1,4.31-6.1l1.89,2.77,1.43-1S478.7,220.6,478.15,218.28Zm-22.7-88.41a11.41,11.41,0,0,1,.52-1.75,7.87,7.87,0,0,0,1.77-2.62,7.49,7.49,0,0,1,0,1.21c0,.28-.7,3.72-.7,4.42a6.86,6.86,0,0,0,.32,1.34l-.07,0c-.15-.61-.48-1.55-1-1.6a2.33,2.33,0,0,0-.53.18A6.72,6.72,0,0,1,455.45,129.87Z"/><path class="b537858a-40c3-4f72-b897-1e96bd4a188e" d="M161,145.28c.24-1,3-2.32,3.67-3.65s3.68-12.06,4.13-12.95l.23.1a17.53,17.53,0,0,1,2.41-5.13c1-2.75,2.15-7.68,2.37-8.34s1.87-10,1.87-10a43.22,43.22,0,0,1,0-4.83,9,9,0,0,1-1.88-.33c-.66-.5,5.39-17,5.39-17l-.7-9.18-3.92,6.66s-2.3,10.53-3,12.55c-.07.24-.5.22-1.09,0a6.07,6.07,0,0,1-.19,2.11,13.28,13.28,0,0,1-3.82,4.9c-1.27.74-2.23,0-1.7-.39.37-.29,1.55-1,.94-.79s-1-.64-.67-1.26c-.63.34-1.59-.54-.78-1-1,.36-1-.8-.44-1.06s1.44-2,1.81-3a5.36,5.36,0,0,1,.79-1.25l-.59-.31s3.86-13.26,4.19-14.42a138.07,138.07,0,0,1,6.7-13.3,11.34,11.34,0,0,1,3-2.71,4.16,4.16,0,0,1-.12-1.61,1.63,1.63,0,0,1-1.25.65s1.39-.23.07-4.18-2.25-7.13-.46-8.83a2.78,2.78,0,0,1,3.44-.58,4.37,4.37,0,0,1,3.84-2c9-3.23,9.54,4.29,8.45,5.94a5,5,0,0,1-.16,1.65s1.17,2.21,1,2.48-.86.25-1,.45a.54.54,0,0,0-.08.46s.12.57-.25.66c-.2,0,.17.33-.12.57a2.08,2.08,0,0,0-.33,1c-.08.41-.18,1.19-1.22.9s-1.55-.2-1.67.21c-.08.25-.21,1.29-.31,2.09l.35.1s4.21,9.47,4.21,11c0,.44-.12,1.48-.28,2.74l2.56,4.5s6.75,7.66,8.06,9.06c.15.16-.07.47-.48.86a5.69,5.69,0,0,1,1.62,1.09A11.89,11.89,0,0,1,207.8,95c0,1.32-1,1.75-1.05,1.16-.06-.42-.08-1.63-.21-1.08s-.93.5-1.27,0c0,.64-1.13,1-1.15.17-.17,1-1.05.42-1-.12a7.38,7.38,0,0,0-1.57-2.73,5.7,5.7,0,0,1-.71-1.31c-.57.36-1,.6-1,.6s-3.59-4.32-6.45-7.74c1.1,3.86,3.36,11.9,2.74,14.39-.15.61-.73,1.08-1.6,1.45,2,7.12,6.8,24.21,7,24.59a12.51,12.51,0,0,1,.62,2.23l1.11,3,.52-.17s3.34,12,5.16,15.53,7.93,4,8.87,4,2.69-.3,1.5,1.19-4.08,2.26-6.76,2.4c-4.48.25-2.12.58-7.28-1.71l.42,3.32-1.74.21s-1.25-2.75-2.37-4.86c-.47-.88.7-3.72.32-5.15s-5.26-11.47-5.51-12.42l.21-.08a28.45,28.45,0,0,1-2.71-7.22c-.92-2.4-6.38-12.16-7.81-14.88-2,4.56-5.1,11.5-5.18,11.87a12.53,12.53,0,0,1-1,2.08s-2.63,4.44-4.32,7.81l.46.19s-5.22,10.19-6.06,14.1c-1.17,5.46,2.2,7,4.06,7.82.87.36,2.22,1.56.33,1.88s-5,1-7.13-.67c-3.52-2.78-2-1-4.32-6.1L161,151.48l-1.45-1S160.49,147.6,161,145.28Zm22.75-88.41a10,10,0,0,0-.51-1.75,7.89,7.89,0,0,1-1.78-2.62,7.49,7.49,0,0,0,0,1.21c0,.28.7,3.72.7,4.42a6.86,6.86,0,0,1-.32,1.34l.08,0c.14-.61.48-1.55,1-1.6a2.33,2.33,0,0,1,.52.18A5.87,5.87,0,0,0,183.79,56.87Z"/></g></g></svg>