<svg xmlns="http://www.w3.org/2000/svg" viewBox="0 0 333.25 302"><defs><style>.bdf41a7d-971f-4c62-878b-e99147a34c82{fill:#050000;}.b977de0d-10fc-49c2-aac7-e585eaebabec{fill:#040000;}.a7a81b64-1754-4c6a-b366-ae5880439288{fill:#231815;}.f3a586d0-f5d3-43b1-a8dc-6183ae10969c{fill:#fff;}</style></defs><title>night</title><g id="ab9287a0-f135-4c3b-878c-0c5b2d514da8" data-name="レイヤー 2"><g id="bf3bc0f8-ce53-45bf-b787-8dd7a9473e4f" data-name="深夜"><path class="bdf41a7d-971f-4c62-878b-e99147a34c82" d="M304.49,184.78c9.28.94,22.86,8.3,26.28,14A15.87,15.87,0,0,1,332.51,212c.8,3.16-1.6,12.65-5.45,15.28-2.16,1.48-3.45,3-5.72,3-.88,0-1.89-1.17,0-1.65s2.61-1.39,4-2.57c2.36-1.93,2.87-5.29,3.32-6.73,1.47-4.8-1.1-5.46-1.1-5.46s-.9.66-.06,2-.46,3.29-.78,4.34a14.43,14.43,0,0,1-2.24,3.22,12.57,12.57,0,0,1-1,2,1.9,1.9,0,0,1-1.32.68s-1.71,2-2.28,1.56a6.85,6.85,0,0,1-2.31.3c-.94-.11-1.07-1-.53-1.9-.57-.4-.68-.94.09-1.62-.28-.45.59-1.49,2.61-1.74s3.75-4.09,3.2-5a22.12,22.12,0,0,0-3.25-3,11,11,0,0,1-.88,3.32c-.69,1.34-4,3.64-5.86,4.19a3.36,3.36,0,0,1-3.48-.89c-.61-.28-1.58-1.16-.36-2-.37-.6.89-1.54,3-2s3-2.64,2.34-3.57-4-5.44-7.58-6.47-12.25-1.82-13.58-.6-8.28,2.92-8,2.55a4.06,4.06,0,0,0,.27-1.58c-.13,1.22-4.54,7.3-5.34,7.91s-8.55,8.14-8.55,8.14a7.28,7.28,0,0,1-2.67,2.68,5.48,5.48,0,0,1-4.14.24c-1.34.37-2.94-.85-2.54-1.46-.54-.24-.67-1.21.53-1.94-.4-.37.54-1,1.2-1.1a19.42,19.42,0,0,0,4.55-2.19c1.47-1,5.34-7.17,5.47-7.66s1.47-2.91,1.47-2.91a11,11,0,0,1-2.27,1.58c-6.54-.13-9.75-5.84-9.75-5.84a12,12,0,0,1-1.6,3.41c-1.07,1.45-11.49,6-11.89,6s-1.74,1-3.21,1.46-3.2.61-3.87-.12c-.4-.12-1.47-.73-1.34-1.22-.4-.24-1.33-1.09.27-2.31.53-1.33,6.14-2.18,7.48-2.43s6.81-3.4,7.35-4.38,3.87-8.38,3.87-8.38l.8.72-.8-1.09-2.27-2.67c1.07,2.67-1.2,8.87-3.61,8.51s-2.53-3-3.07-5.11-2.4-6.81-2-8.75,3.34-6.08,3.6-7.06,1.61-.36,2.54-1.34,6.23-2,7.35-2.43c2-.73,4.54-.61,7.48-.85,2.81-2.07,7.75,1.7,10.29,3.65,0,0,4.54,5.11,5.21,6.57a8.92,8.92,0,0,1,.26,4s.67-2.92.27-3.77a3.79,3.79,0,0,1-.4-1.46S292.7,183.58,304.49,184.78Z"/><rect class="b977de0d-10fc-49c2-aac7-e585eaebabec" x="50.18" width="129.95" height="205.6"/><path class="a7a81b64-1754-4c6a-b366-ae5880439288" d="M85.82,279.86c3.09.18,4.32-2.48,1.86-3.72-2-1-5.62-2.43-7.65-3.51,1.91-2.54,3.66-5.37,4.15-8.2,4.53-6,3.08-11.89,2.26-13.13.82-1.6-1.64-7.63-3.5-7.45s-2.26,3.73-3.08,3.9c-2.47.53-8,.18-8.85-.35s-1.23-4.44-3.7-4.26-3,4.32-3.71,5c-2.67,2.48-1.85,3.9-2.88,4.43-4.73-3.54-19.19-8.66-31.81-7C16.51,247.25,2,253.64.14,272.09S15.34,300.94,38,301.66s42.7.73,47.84-4.06,0-6.56-3.7-4.08S37.27,298,23.48,292.46s-12.35-10.29-10.91-8.87,4.74,3.9,12.35,3.9,15.23-.89,16.46-.89,1.65-3-1.65-3.19c3.91,0,1.65,1.24,6.79,2.48s11.73.71,18.32.71,14,2,16.25,1.07,4.73-4.44-6.17-5.68c-2-.39-.72-2.22,1.46-4.86C78.86,277.86,83.26,279.72,85.82,279.86Z"/><path class="f3a586d0-f5d3-43b1-a8dc-6183ae10969c" d="M157.42,96.42c-6.56,0-11.88,5-11.88,11.24a10.62,10.62,0,0,0,.3,2.53,3.12,3.12,0,0,0,3.61,1.51,2.87,2.87,0,0,0,1.92-2.88,5.65,5.65,0,0,1-.13-1.16,6.19,6.19,0,0,1,12.36,0c0,10.33-18.06,4.64-18.06,19v21.57a4,4,0,0,0,4.13,3.91h15.51a4,4,0,0,0,4.13-3.91V107.66C169.31,101.45,164,96.42,157.42,96.42Z"/></g></g></svg>