<svg xmlns="http://www.w3.org/2000/svg" viewBox="0 0 448.66 314.31"><defs><style>.bcf1121d-0fee-4a20-8f3d-98ad14f8d449{fill:#231815;}.a50e7d9d-eefe-425a-a24e-fdcb41c648d7{fill:#fff;}</style></defs><title>works</title><g id="b2fb5fea-f23f-482b-9a98-9f53e9f256e4" data-name="レイヤー 2"><g id="a3d74aaa-2811-4e2d-a77e-e8be47d7358e" data-name="午前・午後"><path class="bcf1121d-0fee-4a20-8f3d-98ad14f8d449" d="M37.2,50.74s-2.09,1.61-2.57,1.9-.79,1.1-1,1.25-.18.89-.61,1.46c-.24.33.54.83,1,0,.34-.63.65-1.18.65-1.18s1.36-1.1,1.79-1.43l1.21-.89Z"/><path class="bcf1121d-0fee-4a20-8f3d-98ad14f8d449" d="M35.56,56.28c.39-.07.61-.46.86-1a22.81,22.81,0,0,1,1.75-2.94c.36-.43-1,.29-1.31.54A19.5,19.5,0,0,0,35.56,56.28Z"/><path class="bcf1121d-0fee-4a20-8f3d-98ad14f8d449" d="M37.85,50.74s-2,.43-2.55.61-1,.46-1.32.57-1.12.21-1,.54.46.55,1.23.25,4.4-.93,4.58-1.11S37.85,50.74,37.85,50.74Z"/><path class="bcf1121d-0fee-4a20-8f3d-98ad14f8d449" d="M46.62,50.94c-.5,0-1,0-1.48,0-1.46,0-3.43-1.28-5.33-.85s-2.89-.09-3.43,1.57c-.45,1.4-1,1.84-1.53,3.41-.2.55-.49,1-.44,1.24.12.65.77.61,1.15,0A15.24,15.24,0,0,1,36.81,54c1.07-2.08,3-1,4.29-.57.92.34.47,1.53-1.29,1.78-1.44.21-1.39,1.22,0,1.35a11.82,11.82,0,0,0,5.33-.84c.74-.37,1.51-.7,2.17-1Z"/><path class="bcf1121d-0fee-4a20-8f3d-98ad14f8d449" d="M75.56,20.49c-.15.2-.35.47-.59.77-1.26,1.63-3.5,4.48-4.87,5.87l0,.05a9.87,9.87,0,0,0-2.23-2.36c-.77-.66-3.28-.2-4.22,1.2s-2,1.32-2.6.7-.71-.9-1.29-.77-.82-.15-.82-.53c-.72.22-.64-.42-1-.69s-1.35.35-1.75.06-.72-2-.88-2.5a.46.46,0,0,0,0-.09v0c-.18-.6-.26-.64-.94-1.55-3-2.42-4.85-6.18-1-11.08C59.86,2.1,66.34,7.11,67.6,11c1.08,3.39,2,5.35,3.47,6.62A31.87,31.87,0,0,0,75.56,20.49Z"/><path class="bcf1121d-0fee-4a20-8f3d-98ad14f8d449" d="M70.6,28.55h0c1.79-1.74,5.51-5.42,6.73-6.9.43.31.89.65,1.37,1S73.87,27.36,70.6,28.55Z"/><path class="bcf1121d-0fee-4a20-8f3d-98ad14f8d449" d="M95.14,70.25H69.27c-1.15-2.19,2.73-9,2.73-14.42,0-7.59-3-10.9-2.73-17.38.07-1.82,1.65-6.29,1.2-9.77l.13-.13c1.79-1.74,5.51-5.42,6.73-6.9l-.24-.17.29.1c2.22.76,4.5,1.29,8.5,6.09,2.06,2.48,7.4,10.21,9.07,26.16C95.37,57.88,95.14,70.25,95.14,70.25Z"/><path class="bcf1121d-0fee-4a20-8f3d-98ad14f8d449" d="M53,57.31H29.88a1.05,1.05,0,0,0-.6-.43L22.87,34.53c-.06-.27-.2-.71-.56-.71H22.2c-1,.29-1.39,1.19-1,2.41L27,56.65A2.24,2.24,0,0,0,27.93,58a1.06,1.06,0,0,0,.78.93,2,2,0,0,0,1.73,1.16H51.67a2.26,2.26,0,0,0,2-2.34C53.7,57.59,53.6,57.31,53,57.31Z"/><path class="bcf1121d-0fee-4a20-8f3d-98ad14f8d449" d="M53.39,17.14s-5.38.52-6.49-3.75c3.34-2.23,11.5-12.18,16.7-7.67,5.75,2.29,5.53,5.37,5.08,11.44Z"/><path class="bcf1121d-0fee-4a20-8f3d-98ad14f8d449" d="M74.05,31.38c-.3.32-8.43,12.73-9.12,13.08a7.09,7.09,0,0,0-1.51,1.27L47.35,49.64l1.37,7s16.53-2.75,17.64-3.16,1.73-1.63,2.53-2.42S78.47,38.35,79.63,36.8,77.88,27.41,74.05,31.38Z"/><path class="a50e7d9d-eefe-425a-a24e-fdcb41c648d7" d="M77.38,21.58l0,.07-.24-.17Z"/><rect class="bcf1121d-0fee-4a20-8f3d-98ad14f8d449" x="0.89" y="61.32" width="60.11" height="3.8"/><path class="bcf1121d-0fee-4a20-8f3d-98ad14f8d449" d="M93.39,66.16s.8,19.23-5.85,19c-17.7-.49-27.33-2.71-26.6.06.33,1.26,5.94,19,6.26,19.83a39,39,0,0,0,1.49,4.68c.78,1.61-8.49,6.44-8.44,5s-1.06-4-1.2-6c-.1-1.41-8-16.1-10-20.41-4.06-8.72-1.34-13.64,4.79-15.38s18.76-1.59,20.11-3.25-1.12-3.49-1.12-3.49Z"/><path class="bcf1121d-0fee-4a20-8f3d-98ad14f8d449" d="M69.26,81.29c-2,1-2.51,5.8,1.76,5.8h25.6c3.34,0,5.19-4.69,4.08-5.8S69.26,81.29,69.26,81.29Z"/><path class="bcf1121d-0fee-4a20-8f3d-98ad14f8d449" d="M98.63,81.37s3.52-4.91,4.71-15.17h3s-1.67,14.6-6,17.74Z"/><path class="bcf1121d-0fee-4a20-8f3d-98ad14f8d449" d="M101,70c.54-2.43,2-10.75,1.37-14.17-.7-3.9,4.35-4.11,5.18-1.53,1.05,3.25-.76,16.16-2.68,18.92S100.49,72.44,101,70Z"/><path class="bcf1121d-0fee-4a20-8f3d-98ad14f8d449" d="M105.38,67.79s2.5.92,2.5,2.21c0,2.39-1.76,7.12-3.52,6.29Z"/><polygon class="bcf1121d-0fee-4a20-8f3d-98ad14f8d449" points="83.84 87.08 89.88 87.08 89.3 96.71 84.42 96.71 83.84 87.08"/><rect class="bcf1121d-0fee-4a20-8f3d-98ad14f8d449" x="84.42" y="105.38" width="4.89" height="9.62"/><rect class="bcf1121d-0fee-4a20-8f3d-98ad14f8d449" x="85.05" y="94.24" width="3.62" height="17.55"/><rect class="bcf1121d-0fee-4a20-8f3d-98ad14f8d449" x="82.37" y="82.08" width="8.97" height="6.93"/><path class="bcf1121d-0fee-4a20-8f3d-98ad14f8d449" d="M68,108.27a43,43,0,0,1,2.3,5.61,5.16,5.16,0,0,1,1.4,2.75c.54,2.1,2,6.22-.42,6.86a45.53,45.53,0,0,0-5.47.2s-2.09.82-7.63.57-6.78-1.82-5.8-2.71,8.84-3.92,9.42-5.38.07-5,.07-5Z"/><rect class="bcf1121d-0fee-4a20-8f3d-98ad14f8d449" x="3.11" y="61.32" width="27.83" height="62.99"/><path class="bcf1121d-0fee-4a20-8f3d-98ad14f8d449" d="M85.35,114s-7,3.43-10,4.2-2,3.56.83,2.8,9-2.42,10.72-2.42v-5Z"/><path class="bcf1121d-0fee-4a20-8f3d-98ad14f8d449" d="M88.38,114s7,3.43,10,4.2,1.95,3.56-.83,2.8-9-2.42-10.72-2.42v-5Z"/><path class="bcf1121d-0fee-4a20-8f3d-98ad14f8d449" d="M77.28,121.78a2,2,0,1,1-2-2A1.95,1.95,0,0,1,77.28,121.78Z"/><path class="bcf1121d-0fee-4a20-8f3d-98ad14f8d449" d="M91.75,121.78a1.88,1.88,0,1,1-1.88-2A1.91,1.91,0,0,1,91.75,121.78Z"/><path class="bcf1121d-0fee-4a20-8f3d-98ad14f8d449" d="M101.07,121.78a1.95,1.95,0,1,1-1.95-2A1.95,1.95,0,0,1,101.07,121.78Z"/><path class="bcf1121d-0fee-4a20-8f3d-98ad14f8d449" d="M85.35,118s3.34,3.34,3.89,3.75,2.65,1,1.81-.69-1.67-4-1.67-4Z"/><path class="bcf1121d-0fee-4a20-8f3d-98ad14f8d449" d="M377.37,237.92s-2.23,1.43-2.72,1.67-.88,1-1.11,1.16-.25.88-.73,1.41c-.27.31.46.87,1,.09.39-.61.75-1.12.75-1.12s1.44-1,1.9-1.28l1.29-.79Z"/><path class="bcf1121d-0fee-4a20-8f3d-98ad14f8d449" d="M375.26,243.31c.4,0,.65-.41.95-1a23.13,23.13,0,0,1,2-2.78c.39-.39-1,.21-1.35.43A19.55,19.55,0,0,0,375.26,243.31Z"/><path class="bcf1121d-0fee-4a20-8f3d-98ad14f8d449" d="M378,238s-2,.25-2.58.39-1,.38-1.37.46-1.14.11-1.05.44.41.59,1.2.36,4.46-.56,4.66-.72S378,238,378,238Z"/><path class="bcf1121d-0fee-4a20-8f3d-98ad14f8d449" d="M386.73,238.92c-.49,0-1-.06-1.47-.11-1.45-.17-3.31-1.57-5.24-1.31s-2.87-.33-3.55,1.28c-.57,1.36-1.12,1.75-1.82,3.27-.24.53-.56.91-.53,1.2.06.65.71.67,1.14.06a14.88,14.88,0,0,1,1.45-2.21c1.24-2,3.07-.79,4.32-.2.88.41.33,1.56-1.44,1.66-1.45.08-1.49,1.1-.12,1.35a11.88,11.88,0,0,0,5.39-.39c.77-.31,1.56-.57,2.24-.77Z"/><path class="bcf1121d-0fee-4a20-8f3d-98ad14f8d449" d="M406.05,221.12l-.1.11a26.53,26.53,0,0,1-2.78-2.41c-.77-.66-3-1.26-4.38-.24s-2.33.6-2.68-.18-.38-1.08-1-1.14-.73-.41-.61-.77c-.75,0-.47-.6-.7-1s-1.39-.1-1.68-.5a8.74,8.74,0,0,1,0-2.66.31.31,0,0,0,0-.1v0a4.21,4.21,0,0,0-.39-1.77c-2.08-3.27-2.58-7.41,2.61-10.81,8.65-5,13.16,1.88,13.07,6-.07,3.55-.51,6.07,1,7.28a8.61,8.61,0,0,0,3.25,1.44C407.45,220.06,408.16,219.27,406.05,221.12Z"/><path class="bcf1121d-0fee-4a20-8f3d-98ad14f8d449" d="M407.18,222.44a1.35,1.35,0,0,0-.17-.34c1.73-1.68,5.31-5.21,6.63-6.77a15.3,15.3,0,0,1,1.4.93C415.43,216.55,410.39,221.13,407.18,222.44Z"/><path class="bcf1121d-0fee-4a20-8f3d-98ad14f8d449" d="M435.85,258.23l-25.84,1c-1.24-2.15,1.6-8.09,1.39-13.52-.31-7.58.39-10.88-2.67-18.26a25.44,25.44,0,0,1-2.25-4.86l.53-.52c1.73-1.68,5.31-5.21,6.63-6.77l.34-.43c2.43.11,4.79.27,9.79,3.89,3.63,2.62,8.93,7.16,11.23,23C435.59,245.85,435.85,258.23,435.85,258.23Z"/><path class="bcf1121d-0fee-4a20-8f3d-98ad14f8d449" d="M392,206.87s-5.26-1.25-4.93-5.65c3.88-1,14.83-7.8,18.28-1.84,4.7,4,3.5,6.88,1.11,12.47Z"/><path class="bcf1121d-0fee-4a20-8f3d-98ad14f8d449" d="M413.45,223.59c-.33.29-7.2,10.14-7.92,10.44a6.75,6.75,0,0,0-1.61,1.13l-16.34,2.53.76,7.1s16.7-1.33,17.85-1.65,1.86-1.47,2.72-2.2,10.63-11.85,11.92-13.31S417.59,220,413.45,223.59Z"/><rect class="bcf1121d-0fee-4a20-8f3d-98ad14f8d449" x="341.66" y="249.32" width="60.11" height="3.8"/><path class="bcf1121d-0fee-4a20-8f3d-98ad14f8d449" d="M434.16,254.16s.81,19.23-5.84,19c-17.7-.49-27.34-2.71-26.6.06.33,1.26,5.94,19,6.26,19.83a38.67,38.67,0,0,0,1.48,4.68c.79,1.61-8.49,6.44-8.43,5s-1.06-4-1.21-6c-.1-1.41-8-16.1-10.05-20.41-4.06-8.72-1.34-13.64,4.8-15.38s18.76-1.59,20.1-3.25-1.12-3.49-1.12-3.49Z"/><path class="bcf1121d-0fee-4a20-8f3d-98ad14f8d449" d="M410,269.29c-2,1-2.51,5.8,1.76,5.8h25.6c3.34,0,5.2-4.69,4.09-5.8S410,269.29,410,269.29Z"/><path class="bcf1121d-0fee-4a20-8f3d-98ad14f8d449" d="M439.4,269.37s3.52-4.91,4.72-15.17h3s-1.67,14.6-6,17.74Z"/><path class="bcf1121d-0fee-4a20-8f3d-98ad14f8d449" d="M441.8,258c.54-2.43,2-10.75,1.36-14.17-.7-3.9,4.35-4.11,5.19-1.53,1,3.25-.77,16.16-2.68,18.92S441.26,260.44,441.8,258Z"/><path class="bcf1121d-0fee-4a20-8f3d-98ad14f8d449" d="M446.16,255.79s2.5.92,2.5,2.21c0,2.39-1.77,7.12-3.53,6.29Z"/><polygon class="bcf1121d-0fee-4a20-8f3d-98ad14f8d449" points="424.62 275.08 430.65 275.08 430.08 284.71 425.19 284.71 424.62 275.08"/><rect class="bcf1121d-0fee-4a20-8f3d-98ad14f8d449" x="425.19" y="293.38" width="4.89" height="9.62"/><rect class="bcf1121d-0fee-4a20-8f3d-98ad14f8d449" x="425.82" y="282.24" width="3.62" height="17.55"/><rect class="bcf1121d-0fee-4a20-8f3d-98ad14f8d449" x="423.15" y="270.08" width="8.97" height="6.93"/><path class="bcf1121d-0fee-4a20-8f3d-98ad14f8d449" d="M408.72,296.27a41.52,41.52,0,0,1,2.3,5.61,5.12,5.12,0,0,1,1.41,2.75c.53,2.1,2,6.22-.42,6.86a45.75,45.75,0,0,0-5.48.2s-2.08.82-7.62.57-6.79-1.82-5.81-2.71,8.85-3.92,9.42-5.38.08-5,.08-5Z"/><rect class="bcf1121d-0fee-4a20-8f3d-98ad14f8d449" x="343.89" y="249.32" width="27.83" height="62.99"/><path class="bcf1121d-0fee-4a20-8f3d-98ad14f8d449" d="M426.12,302s-6.95,3.43-10,4.2-1.94,3.56.84,2.8,9-2.42,10.71-2.42v-5Z"/><path class="bcf1121d-0fee-4a20-8f3d-98ad14f8d449" d="M429.16,302s7,3.43,10,4.2,1.95,3.56-.84,2.8-9-2.42-10.71-2.42v-5Z"/><path class="bcf1121d-0fee-4a20-8f3d-98ad14f8d449" d="M418.05,309.78a1.95,1.95,0,1,1-1.95-1.95A1.95,1.95,0,0,1,418.05,309.78Z"/><path class="bcf1121d-0fee-4a20-8f3d-98ad14f8d449" d="M432.52,309.78a1.88,1.88,0,1,1-1.87-1.95A1.91,1.91,0,0,1,432.52,309.78Z"/><path class="bcf1121d-0fee-4a20-8f3d-98ad14f8d449" d="M441.85,309.78a2,2,0,1,1-2-1.95A2,2,0,0,1,441.85,309.78Z"/><path class="bcf1121d-0fee-4a20-8f3d-98ad14f8d449" d="M426.12,306s3.34,3.34,3.9,3.75,2.64,1,1.81-.69a41.37,41.37,0,0,1-1.67-4Z"/><rect class="bcf1121d-0fee-4a20-8f3d-98ad14f8d449" x="364.85" y="244.8" width="22.45" height="2.78"/><path class="bcf1121d-0fee-4a20-8f3d-98ad14f8d449" d="M358,244.62h-6.8a41.38,41.38,0,0,1,2.9-14.35v9h3.16V207.51h-3.16v17.75c-2,2-5.84,7.78-5.84,22.14h13.82v-1.48A6.5,6.5,0,0,0,358,244.62Z"/><path class="bcf1121d-0fee-4a20-8f3d-98ad14f8d449" d="M91.1,201.32c-.79,3.46-2.41,5-2.83,6.94a11.69,11.69,0,0,0-.26,3.16L80.45,214c0-.59-.08-1.15-.08-1.6,0-1,.19-1.46-1.37-.82s-2.42,0-2.54-.89-.09-1.14-.64-1.35-.59-.6-.38-.91c-.72-.22-.29-.7-.42-1.13s-1.31-.46-1.48-.93a8.65,8.65,0,0,1,.68-2.56.94.94,0,0,1,0-.09v0a4.06,4.06,0,0,0,.1-1.81c-.76-3.75,1.09-8.76,5.38-9.74C89.37,189.72,92,197.54,91.1,201.32Z"/><path class="bcf1121d-0fee-4a20-8f3d-98ad14f8d449" d="M90.38,248.18c.13-5.91,1-21.08.7-24.63a32.56,32.56,0,0,0-2.21-8c.12.26.14-.18.13-.18-.15-.44-.07-1.15-.31-2l-2,.46-6.2,1.38c0-.06,0-.05-.07,0-1,3.11-4.81,9.09-5.58,11-2.44,6-2.79,11.41-3.34,20.59-.26,4.27-1.25,11.9-.1,14.1l20.69-1.3S90.33,250.56,90.38,248.18Z"/><path class="bcf1121d-0fee-4a20-8f3d-98ad14f8d449" d="M43,239.92s-2.23,1.43-2.72,1.67-.89,1-1.12,1.16-.25.88-.73,1.41c-.27.31.47.87,1,.09.38-.61.74-1.12.74-1.12s1.45-1,1.9-1.28l1.29-.79Z"/><path class="bcf1121d-0fee-4a20-8f3d-98ad14f8d449" d="M40.83,245.31c.4,0,.65-.41,1-1a24.3,24.3,0,0,1,2-2.78c.4-.39-1,.21-1.34.43A19.67,19.67,0,0,0,40.83,245.31Z"/><path class="bcf1121d-0fee-4a20-8f3d-98ad14f8d449" d="M43.59,240s-2.05.25-2.59.39-1,.38-1.36.46-1.14.11-1.06.44.41.59,1.21.36,4.46-.56,4.65-.72S43.59,240,43.59,240Z"/><path class="bcf1121d-0fee-4a20-8f3d-98ad14f8d449" d="M52.31,240.92c-.5,0-1-.06-1.47-.11-1.46-.17-3.31-1.57-5.25-1.31s-2.87-.33-3.54,1.28c-.57,1.36-1.12,1.75-1.82,3.27-.25.53-.56.91-.54,1.2.06.65.72.67,1.14.06a16.83,16.83,0,0,1,1.45-2.21c1.25-2,3.08-.79,4.33-.2.88.41.33,1.56-1.45,1.66-1.45.08-1.48,1.1-.11,1.35a11.89,11.89,0,0,0,5.39-.39c.76-.31,1.56-.57,2.23-.77Z"/><path class="bcf1121d-0fee-4a20-8f3d-98ad14f8d449" d="M79,225.59c-.32.29-7.2,10.14-7.92,10.44a6.75,6.75,0,0,0-1.61,1.13l-16.34,2.53.76,7.1s16.71-1.33,17.86-1.65,1.86-1.47,2.72-2.2,10.62-11.85,11.91-13.31S83.17,222,79,225.59Z"/><rect class="bcf1121d-0fee-4a20-8f3d-98ad14f8d449" y="251.32" width="60.11" height="3.8"/><path class="bcf1121d-0fee-4a20-8f3d-98ad14f8d449" d="M88.76,256S94,274,87.37,273.8c-17.7-.5-27.64.09-27.32,1.46s1.77,19.34,2.09,20.15.56,3.32,1.3,4.82-9.61,6-9.55,4.49-1.06-4-1.21-6c-.1-1.41-3.53-15.15-4.57-20.41-1.86-9.44-1.34-13.64,4.8-15.38s18.76-1.59,20.1-3.25a5.36,5.36,0,0,0,1.19-3.49Z"/><path class="bcf1121d-0fee-4a20-8f3d-98ad14f8d449" d="M68.37,271.29c-2,1-2.51,5.8,1.76,5.8h25.6c3.34,0,5.2-4.69,4.08-5.8S68.37,271.29,68.37,271.29Z"/><path class="bcf1121d-0fee-4a20-8f3d-98ad14f8d449" d="M97.74,271.37s3.52-4.91,4.72-15.17h3s-1.67,14.6-6,17.74Z"/><path class="bcf1121d-0fee-4a20-8f3d-98ad14f8d449" d="M100.14,260c.53-2.43,2-10.75,1.36-14.17-.7-3.9,4.35-4.11,5.19-1.53,1,3.25-.77,16.16-2.69,18.92S99.6,262.44,100.14,260Z"/><path class="bcf1121d-0fee-4a20-8f3d-98ad14f8d449" d="M104.5,257.79s2.5.92,2.5,2.21c0,2.39-1.77,7.12-3.53,6.29Z"/><polygon class="bcf1121d-0fee-4a20-8f3d-98ad14f8d449" points="82.96 277.08 88.99 277.08 88.42 286.71 83.53 286.71 82.96 277.08"/><rect class="bcf1121d-0fee-4a20-8f3d-98ad14f8d449" x="83.53" y="295.38" width="4.89" height="9.62"/><rect class="bcf1121d-0fee-4a20-8f3d-98ad14f8d449" x="84.16" y="284.24" width="3.62" height="17.55"/><rect class="bcf1121d-0fee-4a20-8f3d-98ad14f8d449" x="81.49" y="272.08" width="8.97" height="6.93"/><path class="bcf1121d-0fee-4a20-8f3d-98ad14f8d449" d="M61.58,298.27a41.52,41.52,0,0,1,2.3,5.61,5.12,5.12,0,0,1,1.41,2.75c.54,2.1,2,6.22-.42,6.86a45.75,45.75,0,0,0-5.48.2s-2.08.82-7.62.57S45,312.44,46,311.55s8.84-3.92,9.41-5.38.08-5,.08-5Z"/><rect class="bcf1121d-0fee-4a20-8f3d-98ad14f8d449" x="2.23" y="251.32" width="27.83" height="62.99"/><path class="bcf1121d-0fee-4a20-8f3d-98ad14f8d449" d="M84.46,304s-7,3.43-10,4.2-1.94,3.56.84,2.8,9-2.42,10.71-2.42v-5Z"/><path class="bcf1121d-0fee-4a20-8f3d-98ad14f8d449" d="M87.5,304s7,3.43,10,4.2,1.94,3.56-.84,2.8-9-2.42-10.71-2.42v-5Z"/><path class="bcf1121d-0fee-4a20-8f3d-98ad14f8d449" d="M76.39,311.78a1.95,1.95,0,1,1-2-1.95A1.95,1.95,0,0,1,76.39,311.78Z"/><path class="bcf1121d-0fee-4a20-8f3d-98ad14f8d449" d="M90.86,311.78A1.88,1.88,0,1,1,89,309.83,1.91,1.91,0,0,1,90.86,311.78Z"/><path class="bcf1121d-0fee-4a20-8f3d-98ad14f8d449" d="M100.18,311.78a1.95,1.95,0,1,1-1.94-1.95A1.94,1.94,0,0,1,100.18,311.78Z"/><path class="bcf1121d-0fee-4a20-8f3d-98ad14f8d449" d="M84.46,308s3.34,3.34,3.9,3.75,2.64,1,1.81-.69a41.37,41.37,0,0,1-1.67-4Z"/><rect class="bcf1121d-0fee-4a20-8f3d-98ad14f8d449" x="30.43" y="246.8" width="22.45" height="2.78"/><path class="bcf1121d-0fee-4a20-8f3d-98ad14f8d449" d="M23.56,246.62h-6.8a41.09,41.09,0,0,1,2.91-14.35v9h3.15V209.51H19.67v17.75c-2,2-5.85,7.78-5.85,22.14H27.64v-1.48A6.5,6.5,0,0,0,23.56,246.62Z"/><path class="bcf1121d-0fee-4a20-8f3d-98ad14f8d449" d="M76,198.28s-4.88-2.32-3.64-6.55c4-.19,16.12-4.54,18.26,2,3.76,4.91,2,7.45-1.51,12.42Z"/><path class="bcf1121d-0fee-4a20-8f3d-98ad14f8d449" d="M376.72,50.29S374.49,51.72,374,52s-.89,1-1.11,1.16-.26.88-.73,1.41c-.27.31.46.87,1,.09.38-.61.75-1.13.75-1.13s1.44-1,1.89-1.27l1.29-.79Z"/><path class="bcf1121d-0fee-4a20-8f3d-98ad14f8d449" d="M374.61,55.68c.4,0,.64-.41.94-1a23.19,23.19,0,0,1,2-2.78c.39-.4-1,.21-1.35.43A19.55,19.55,0,0,0,374.61,55.68Z"/><path class="bcf1121d-0fee-4a20-8f3d-98ad14f8d449" d="M377.36,50.35s-2,.25-2.59.39-1,.38-1.36.45-1.14.12-1.05.45.4.59,1.2.36,4.46-.56,4.65-.72S377.36,50.35,377.36,50.35Z"/><path class="bcf1121d-0fee-4a20-8f3d-98ad14f8d449" d="M406.05,32.92c-.42-.9-1.21-1.48-3-2.12-1-.35-3.59-.87-4.93.15s-2.34.6-2.68-.18-.39-1.08-1-1.14-.73-.41-.61-.77c-.75,0-.47-.6-.71-1s-1.39-.1-1.67-.5a9,9,0,0,1,0-2.66v-.07a4.15,4.15,0,0,0-.38-1.77c-2.08-3.27-2.59-7.41,2.61-10.81,8.65-5,13.15,1.88,13.07,6-.07,3.55-.51,6.07,1,7.28a8.48,8.48,0,0,0,3.25,1.44C407.32,31.74,407.41,31.73,406.05,32.92Z"/><path class="bcf1121d-0fee-4a20-8f3d-98ad14f8d449" d="M406.53,34.81c0-.15,0-.3-.07-.44,1.77-1.72,5.24-5.14,6.53-6.68.42.25.88.56,1.4.94S409.74,33.5,406.53,34.81Z"/><path class="bcf1121d-0fee-4a20-8f3d-98ad14f8d449" d="M435.35,68.84l-23.65.09c-.19-2.69.77-4.41.55-9.83-.3-7.59-4.64-4.18-4.17-19.25a7.4,7.4,0,0,0-1.9-5.21,3.5,3.5,0,0,0,.28-.27c1.77-1.72,5.24-5.14,6.53-6.68a1.74,1.74,0,0,0,.18-.22c2.68.57,5.33,1.18,10.49,4.91,3.62,2.62,9.74,8.9,10.69,21.81C434.65,58.25,435.35,68.84,435.35,68.84Z"/><path class="bcf1121d-0fee-4a20-8f3d-98ad14f8d449" d="M412.79,36c-.32.29-7.2,10.76-7.91,11.06a6.89,6.89,0,0,0-1.62,1.13l-16.33,2.53.76,5.54s16.7-1.34,17.85-1.65,1.86-1.48,2.72-2.2S418.89,41.45,420.17,40,416.94,32.33,412.79,36Z"/><rect class="bcf1121d-0fee-4a20-8f3d-98ad14f8d449" x="341.01" y="61.69" width="60.11" height="3.8"/><path class="bcf1121d-0fee-4a20-8f3d-98ad14f8d449" d="M433.51,66.53s5.35,16.74-5.95,17.61c-12.23,1-18.46.93-26.5,1.49.06.55,2.66,2.59,4.88,16.32.65,4,3.38,11.93,3.71,13,.54,1.71-5.91,1.19-6.3-.24a27.16,27.16,0,0,0-2.79-6.9c-.64-1.26-7.45-16-9.46-20.32-4.06-8.72-1.5-11.09,4.64-12.8,6.93-1.93,14-2.06,17.25-3.71.75-.37-.09-4.44-.09-4.44Z"/><path class="bcf1121d-0fee-4a20-8f3d-98ad14f8d449" d="M409.38,81.66c-2,1-2.51,5.8,1.76,5.8h25.6c3.34,0,5.2-4.69,4.08-5.8S409.38,81.66,409.38,81.66Z"/><path class="bcf1121d-0fee-4a20-8f3d-98ad14f8d449" d="M438.75,81.74s3.52-4.91,4.71-15.17h3s-1.67,14.6-6,17.74Z"/><path class="bcf1121d-0fee-4a20-8f3d-98ad14f8d449" d="M441.15,70.37c.53-2.43,2-10.75,1.36-14.17-.7-3.9,4.35-4.11,5.19-1.53,1.05,3.25-.77,16.16-2.69,18.92S440.61,72.81,441.15,70.37Z"/><path class="bcf1121d-0fee-4a20-8f3d-98ad14f8d449" d="M445.51,68.16s2.5.92,2.5,2.21c0,2.39-1.77,7.12-3.53,6.29Z"/><polygon class="bcf1121d-0fee-4a20-8f3d-98ad14f8d449" points="423.96 87.45 430 87.45 429.43 97.08 424.54 97.08 423.96 87.45"/><rect class="bcf1121d-0fee-4a20-8f3d-98ad14f8d449" x="424.54" y="105.75" width="4.89" height="9.62"/><rect class="bcf1121d-0fee-4a20-8f3d-98ad14f8d449" x="425.17" y="94.61" width="3.62" height="17.55"/><rect class="bcf1121d-0fee-4a20-8f3d-98ad14f8d449" x="422.5" y="82.45" width="8.97" height="6.92"/><rect class="bcf1121d-0fee-4a20-8f3d-98ad14f8d449" x="343.24" y="61.69" width="27.83" height="62.99"/><path class="bcf1121d-0fee-4a20-8f3d-98ad14f8d449" d="M425.47,114.33s-7,3.43-10,4.2-1.95,3.56.84,2.8,9-2.42,10.71-2.42v-5Z"/><path class="bcf1121d-0fee-4a20-8f3d-98ad14f8d449" d="M428.51,114.33s6.95,3.43,10,4.2,1.94,3.56-.84,2.8-9-2.42-10.71-2.42v-5Z"/><path class="bcf1121d-0fee-4a20-8f3d-98ad14f8d449" d="M417.4,122.15a1.95,1.95,0,1,1-1.95-2A1.95,1.95,0,0,1,417.4,122.15Z"/><path class="bcf1121d-0fee-4a20-8f3d-98ad14f8d449" d="M431.87,122.15a1.88,1.88,0,1,1-1.88-2A1.91,1.91,0,0,1,431.87,122.15Z"/><path class="bcf1121d-0fee-4a20-8f3d-98ad14f8d449" d="M441.19,122.15a1.95,1.95,0,1,1-1.94-2A1.94,1.94,0,0,1,441.19,122.15Z"/><path class="bcf1121d-0fee-4a20-8f3d-98ad14f8d449" d="M425.47,118.4s3.34,3.33,3.9,3.75,2.64,1,1.81-.69a41.37,41.37,0,0,1-1.67-4Z"/><rect class="bcf1121d-0fee-4a20-8f3d-98ad14f8d449" x="364.2" y="57.17" width="22.45" height="2.78"/><path class="bcf1121d-0fee-4a20-8f3d-98ad14f8d449" d="M357.34,57h-6.8a41.15,41.15,0,0,1,2.9-14.35v9h3.15V19.88h-3.15V37.63c-2,2-5.84,7.78-5.84,22.14h13.82V58.28A6.56,6.56,0,0,0,357.34,57Z"/><path class="bcf1121d-0fee-4a20-8f3d-98ad14f8d449" d="M394.16,22.08c-2.5-.28-7.23,0-7.23-5.28s8.35-11.14,15.58-7.24c5.57-.28,8.81,8.16,4.18,14.1C401.12,23.1,394.16,22.08,394.16,22.08Z"/><path class="bcf1121d-0fee-4a20-8f3d-98ad14f8d449" d="M391.61,22.69a1.75,1.75,0,0,1-1.18.66,1.72,1.72,0,0,0,1.37,0Z"/><path class="bcf1121d-0fee-4a20-8f3d-98ad14f8d449" d="M409.65,114.94s.56,0,1.12,1.3a25.61,25.61,0,0,1,1.11,7.6c0,.75-1.48,1.12-2.6,1.12a7.3,7.3,0,0,1-2.59-.74l-3.9.92a33.78,33.78,0,0,1-6.68.19c-2.6-.19-.93-2.23.37-2.41s7-4,7-5.62-.74-2.42-.18-2.6A62.63,62.63,0,0,1,409.65,114.94Z"/><path class="bcf1121d-0fee-4a20-8f3d-98ad14f8d449" d="M407.8,17.17c.56,0,3-1.3,7.24,3.71,2.63,3.09-.19,10.76,3.34,11.87-5.2,1.48-7.43-5-7.61-8.16s-3.16-4.46-3.9-4.27S407.8,17.17,407.8,17.17Z"/><path class="bcf1121d-0fee-4a20-8f3d-98ad14f8d449" d="M385.63,51.27c-.35,0-.7-.05-1-.09-1.45-.17-3.31-1.57-5.24-1.31s-2.87-.33-3.55,1.28c-.57,1.36-1.12,1.75-1.82,3.27-.24.53-.56.91-.54,1.19.06.66.72.68,1.15.07a15.39,15.39,0,0,1,1.44-2.21c1.25-2,3.08-.79,4.33-.2.88.41.33,1.56-1.44,1.66-1.46.09-1.49,1.1-.12,1.35a11.76,11.76,0,0,0,5.39-.4c.64-.25,1.31-.48,1.9-.66Z"/><path class="bcf1121d-0fee-4a20-8f3d-98ad14f8d449" d="M263.1,11.69c-.79,3.46-2.41,5-2.83,6.94a11.73,11.73,0,0,0-.22,3.72l-7.57,2.55c0-.77-.11-1.53-.11-2.11,0-1,.19-1.46-1.37-.82s-2.42,0-2.54-.89-.09-1.14-.64-1.35-.59-.6-.38-.91c-.72-.22-.29-.7-.42-1.13s-1.31-.46-1.48-.93a8.65,8.65,0,0,1,.68-2.56.46.46,0,0,1,0-.09v0a4.06,4.06,0,0,0,.1-1.81c-.76-3.75,1.09-8.76,5.38-9.73C261.37.09,264,7.91,263.1,11.69Z"/><path class="bcf1121d-0fee-4a20-8f3d-98ad14f8d449" d="M251.8,36c-.32.29-7.2,10.76-7.92,11.06a6.75,6.75,0,0,0-1.61,1.13l-16.34,2.53.76,5.54s16.71-1.34,17.86-1.65,1.86-1.48,2.72-2.2S257.89,41.45,259.18,40,256,32.33,251.8,36Z"/><path class="bcf1121d-0fee-4a20-8f3d-98ad14f8d449" d="M215,50.29s-2.23,1.43-2.72,1.67-.89,1-1.12,1.16-.25.88-.73,1.41c-.27.31.47.87,1,.09.38-.61.74-1.13.74-1.13s1.45-1,1.9-1.27l1.29-.79Z"/><path class="bcf1121d-0fee-4a20-8f3d-98ad14f8d449" d="M212.83,55.68c.4,0,.65-.41.95-1a24.3,24.3,0,0,1,2-2.78c.4-.4-1,.21-1.34.43A19.67,19.67,0,0,0,212.83,55.68Z"/><path class="bcf1121d-0fee-4a20-8f3d-98ad14f8d449" d="M215.59,50.35s-2.05.25-2.59.39-1,.38-1.36.45-1.14.12-1.06.45.41.59,1.21.36,4.46-.56,4.65-.72S215.59,50.35,215.59,50.35Z"/><rect class="bcf1121d-0fee-4a20-8f3d-98ad14f8d449" x="172" y="61.69" width="60.11" height="3.8"/><path class="bcf1121d-0fee-4a20-8f3d-98ad14f8d449" d="M240.37,81.66c-2,1-2.51,5.8,1.76,5.8h25.6c3.34,0,5.2-4.69,4.08-5.8S240.37,81.66,240.37,81.66Z"/><path class="bcf1121d-0fee-4a20-8f3d-98ad14f8d449" d="M269.74,81.74s3.52-4.91,4.72-15.17h3s-1.67,14.6-6,17.74Z"/><path class="bcf1121d-0fee-4a20-8f3d-98ad14f8d449" d="M272.14,70.37c.53-2.43,2-10.75,1.36-14.17-.7-3.9,4.35-4.11,5.19-1.53,1.05,3.25-.77,16.16-2.69,18.92S271.6,72.81,272.14,70.37Z"/><path class="bcf1121d-0fee-4a20-8f3d-98ad14f8d449" d="M276.5,68.16s2.5.92,2.5,2.21c0,2.39-1.77,7.12-3.53,6.29Z"/><polygon class="bcf1121d-0fee-4a20-8f3d-98ad14f8d449" points="254.96 87.45 260.99 87.45 260.42 97.08 255.53 97.08 254.96 87.45"/><rect class="bcf1121d-0fee-4a20-8f3d-98ad14f8d449" x="255.53" y="105.75" width="4.89" height="9.62"/><rect class="bcf1121d-0fee-4a20-8f3d-98ad14f8d449" x="256.16" y="94.61" width="3.62" height="17.55"/><rect class="bcf1121d-0fee-4a20-8f3d-98ad14f8d449" x="253.49" y="82.45" width="8.97" height="6.92"/><rect class="bcf1121d-0fee-4a20-8f3d-98ad14f8d449" x="174.23" y="61.69" width="27.83" height="62.99"/><path class="bcf1121d-0fee-4a20-8f3d-98ad14f8d449" d="M256.46,114.33s-7,3.43-10,4.2-1.94,3.56.84,2.8,9-2.42,10.71-2.42v-5Z"/><path class="bcf1121d-0fee-4a20-8f3d-98ad14f8d449" d="M259.5,114.33s7,3.43,10,4.2,1.94,3.56-.84,2.8-9-2.42-10.71-2.42v-5Z"/><path class="bcf1121d-0fee-4a20-8f3d-98ad14f8d449" d="M248.39,122.15a1.95,1.95,0,1,1-1.95-2A1.95,1.95,0,0,1,248.39,122.15Z"/><path class="bcf1121d-0fee-4a20-8f3d-98ad14f8d449" d="M262.86,122.15a1.88,1.88,0,1,1-1.88-2A1.91,1.91,0,0,1,262.86,122.15Z"/><path class="bcf1121d-0fee-4a20-8f3d-98ad14f8d449" d="M272.18,122.15a1.95,1.95,0,1,1-1.94-2A1.94,1.94,0,0,1,272.18,122.15Z"/><path class="bcf1121d-0fee-4a20-8f3d-98ad14f8d449" d="M256.46,118.4s3.34,3.33,3.9,3.75,2.64,1,1.81-.69a41.37,41.37,0,0,1-1.67-4Z"/><rect class="bcf1121d-0fee-4a20-8f3d-98ad14f8d449" x="202.43" y="57.17" width="22.45" height="2.78"/><path class="bcf1121d-0fee-4a20-8f3d-98ad14f8d449" d="M195.56,57h-6.8a41.09,41.09,0,0,1,2.91-14.35v9h3.15V19.88h-3.15V37.63c-2,2-5.85,7.78-5.85,22.14h13.82V58.28A6.53,6.53,0,0,0,195.56,57Z"/><path class="bcf1121d-0fee-4a20-8f3d-98ad14f8d449" d="M263.42,66.53s5.34,16.74-6,17.61c-12.23,1-18.46.93-26.49,1.49.06.55,2.65,2.59,4.88,16.32.65,4,3.38,11.93,3.71,13,.54,1.71-5.92,1.19-6.31-.24a26.63,26.63,0,0,0-2.78-6.9c-.64-1.26-7.45-16-9.46-20.32-4.06-8.72-1.51-11.09,4.64-12.8,6.92-1.93,14-2.06,17.25-3.71.74-.37-.09-4.44-.09-4.44Z"/><path class="bcf1121d-0fee-4a20-8f3d-98ad14f8d449" d="M239.56,114.94s.56,0,1.11,1.3a25.24,25.24,0,0,1,1.12,7.6c0,.75-1.49,1.12-2.6,1.12a7.38,7.38,0,0,1-2.6-.74l-3.89.92a33.82,33.82,0,0,1-6.68.19c-2.6-.19-.93-2.23.37-2.41s7.05-4,7.05-5.62-.74-2.42-.19-2.6A62.72,62.72,0,0,1,239.56,114.94Z"/><path class="bcf1121d-0fee-4a20-8f3d-98ad14f8d449" d="M249.24,13.07c-2.4-.77-7.09-1.43-6-6.61s10.38-9.26,16.7-4c5.51.82,6.49,10.09.77,15A116.46,116.46,0,0,1,249.24,13.07Z"/><path class="bcf1121d-0fee-4a20-8f3d-98ad14f8d449" d="M246.71,12.41a1.74,1.74,0,0,1-1.29.43,1.74,1.74,0,0,0,1.34.27Z"/><path class="bcf1121d-0fee-4a20-8f3d-98ad14f8d449" d="M263.05,12c.53.18,3.23-.3,5.71,5.79,1.54,3.77-3.54,10.16-.55,12.32-5.39-.21-5.47-7.08-4.66-10.13s-1.61-5.22-2.37-5.27S263.05,12,263.05,12Z"/><path class="bcf1121d-0fee-4a20-8f3d-98ad14f8d449" d="M224.52,51.3c-.56,0-1.16-.06-1.68-.12-1.46-.17-3.31-1.57-5.25-1.31s-2.87-.33-3.54,1.28c-.57,1.36-1.12,1.75-1.82,3.27-.25.53-.56.91-.54,1.19.06.66.72.68,1.14.07a16.83,16.83,0,0,1,1.45-2.21c1.25-2,3.08-.79,4.33-.2.88.41.33,1.56-1.45,1.66-1.45.09-1.48,1.1-.11,1.35a11.76,11.76,0,0,0,5.39-.4,10,10,0,0,1,2.33-.47Z"/><path class="bcf1121d-0fee-4a20-8f3d-98ad14f8d449" d="M264.1,70l-20.69,1.3c-1.15-2.2-.16-9.83.1-14.1.55-9.18.9-14.58,3.34-20.59.65-1.62,3.44-6.14,4.92-9.38l2.61-.58h0l6.75-1.85c.08.19.28,1.25.37,1.49a29.69,29.69,0,0,1,1.58,7.66c.32,3.56-.57,18.72-.7,24.63C262.33,60.93,264.1,70,264.1,70Z"/><path class="bcf1121d-0fee-4a20-8f3d-98ad14f8d449" d="M207.2,239.11s-2.09,1.61-2.57,1.9-.79,1.1-1,1.25-.18.89-.61,1.46c-.24.33.54.83,1,0,.34-.63.65-1.18.65-1.18s1.36-1.11,1.79-1.43l1.21-.89Z"/><path class="bcf1121d-0fee-4a20-8f3d-98ad14f8d449" d="M205.56,244.65c.39-.07.61-.46.86-1a22.81,22.81,0,0,1,1.75-2.94c.36-.43-1,.29-1.31.54A19.5,19.5,0,0,0,205.56,244.65Z"/><path class="bcf1121d-0fee-4a20-8f3d-98ad14f8d449" d="M207.85,239.11s-2,.43-2.55.61-1,.46-1.32.57-1.12.21-1,.54.46.55,1.23.25,4.4-.93,4.58-1.11S207.85,239.11,207.85,239.11Z"/><path class="bcf1121d-0fee-4a20-8f3d-98ad14f8d449" d="M245,209.63c-1.26,1.63-3.5,4.48-4.87,5.87a4.13,4.13,0,0,1,.14.42c-.06-.13-.12-.25-.19-.37a9.87,9.87,0,0,0-2.23-2.36c-.77-.66-3.28-.2-4.22,1.2s-2,1.32-2.6.7-.71-.9-1.29-.77-.82-.15-.82-.53c-.72.22-.64-.42-1-.69s-1.35.35-1.75.06a8.55,8.55,0,0,1-.88-2.5.46.46,0,0,0,0-.09v0c-.18-.6-.26-.64-.94-1.55-3-2.42-4.85-6.18-1-11.08,6.57-7.49,13.05-2.48,14.31,1.44,1.08,3.38,2,5.35,3.47,6.62a31.87,31.87,0,0,0,4.49,2.84C245.41,209.06,245.21,209.33,245,209.63Z"/><path class="bcf1121d-0fee-4a20-8f3d-98ad14f8d449" d="M240.6,216.92h0c1.79-1.74,5.51-5.42,6.73-6.9.43.31.89.65,1.37,1S243.87,215.73,240.6,216.92Z"/><path class="bcf1121d-0fee-4a20-8f3d-98ad14f8d449" d="M265.14,258.63H239.27c-1.15-2.21,2.73-9,2.73-14.43,0-7.59-3-10.9-2.73-17.38.07-1.82,1.65-6.29,1.2-9.77l.13-.13c1.79-1.74,5.51-5.42,6.73-6.9l-.24-.17.29.1c2.22.76,4.5,1.29,8.5,6.09,2.06,2.48,7.4,10.21,9.07,26.16C265.37,246.25,265.14,258.63,265.14,258.63Z"/><path class="bcf1121d-0fee-4a20-8f3d-98ad14f8d449" d="M223,245.68H199.88a1.05,1.05,0,0,0-.6-.43l-6.41-22.36c-.06-.27-.2-.71-.56-.71h-.11c-1,.29-1.39,1.19-1,2.41L197,245a2.27,2.27,0,0,0,.92,1.36,1.06,1.06,0,0,0,.78.93,2,2,0,0,0,1.73,1.16h21.23a2.26,2.26,0,0,0,2-2.34C223.7,246,223.6,245.68,223,245.68Z"/><path class="a50e7d9d-eefe-425a-a24e-fdcb41c648d7" d="M240.1,215.5a4.13,4.13,0,0,1,.14.42c-.06-.13-.12-.25-.19-.37Z"/><path class="a50e7d9d-eefe-425a-a24e-fdcb41c648d7" d="M247.38,210l0,.07-.24-.17Z"/><rect class="bcf1121d-0fee-4a20-8f3d-98ad14f8d449" x="170.89" y="249.69" width="60.11" height="3.8"/><path class="bcf1121d-0fee-4a20-8f3d-98ad14f8d449" d="M239.26,269.66c-2,1-2.51,5.8,1.76,5.8h25.6c3.34,0,5.19-4.69,4.08-5.8S239.26,269.66,239.26,269.66Z"/><path class="bcf1121d-0fee-4a20-8f3d-98ad14f8d449" d="M268.63,269.74s3.52-4.91,4.71-15.17h3s-1.67,14.6-6,17.74Z"/><path class="bcf1121d-0fee-4a20-8f3d-98ad14f8d449" d="M271,258.37c.54-2.43,2-10.75,1.37-14.17-.7-3.9,4.35-4.11,5.18-1.53,1.05,3.25-.76,16.16-2.68,18.92S270.49,260.81,271,258.37Z"/><path class="bcf1121d-0fee-4a20-8f3d-98ad14f8d449" d="M275.38,256.16s2.5.92,2.5,2.21c0,2.39-1.76,7.12-3.52,6.29Z"/><polygon class="bcf1121d-0fee-4a20-8f3d-98ad14f8d449" points="253.84 275.45 259.88 275.45 259.3 285.08 254.41 285.08 253.84 275.45"/><rect class="bcf1121d-0fee-4a20-8f3d-98ad14f8d449" x="254.42" y="293.75" width="4.89" height="9.62"/><rect class="bcf1121d-0fee-4a20-8f3d-98ad14f8d449" x="255.05" y="282.61" width="3.62" height="17.55"/><rect class="bcf1121d-0fee-4a20-8f3d-98ad14f8d449" x="252.37" y="270.45" width="8.97" height="6.92"/><rect class="bcf1121d-0fee-4a20-8f3d-98ad14f8d449" x="173.11" y="249.69" width="27.83" height="62.99"/><path class="bcf1121d-0fee-4a20-8f3d-98ad14f8d449" d="M255.35,302.33s-7,3.43-10,4.2-2,3.56.83,2.8,9.05-2.42,10.72-2.42v-5Z"/><path class="bcf1121d-0fee-4a20-8f3d-98ad14f8d449" d="M258.38,302.33s7,3.43,10,4.2,2,3.56-.83,2.8-9.05-2.42-10.72-2.42v-5Z"/><path class="bcf1121d-0fee-4a20-8f3d-98ad14f8d449" d="M247.28,310.15a2,2,0,1,1-1.95-1.95A1.95,1.95,0,0,1,247.28,310.15Z"/><path class="bcf1121d-0fee-4a20-8f3d-98ad14f8d449" d="M261.75,310.15a1.88,1.88,0,1,1-1.88-1.95A1.91,1.91,0,0,1,261.75,310.15Z"/><path class="bcf1121d-0fee-4a20-8f3d-98ad14f8d449" d="M271.07,310.15a1.95,1.95,0,1,1-1.95-1.95A1.95,1.95,0,0,1,271.07,310.15Z"/><path class="bcf1121d-0fee-4a20-8f3d-98ad14f8d449" d="M255.35,306.4s3.34,3.33,3.89,3.75,2.65,1,1.81-.69-1.67-4-1.67-4Z"/><path class="bcf1121d-0fee-4a20-8f3d-98ad14f8d449" d="M244.32,224c-.32.29-7.2,10.76-7.91,11.06a6.89,6.89,0,0,0-1.62,1.13l-16.33,2.53.76,5.54s16.7-1.34,17.85-1.65,1.86-1.48,2.72-2.2S250.42,229.45,251.7,228,248.47,220.33,244.32,224Z"/><path class="bcf1121d-0fee-4a20-8f3d-98ad14f8d449" d="M262.47,254.53s5.35,16.74-6,17.61c-12.23.95-18.46.93-26.49,1.49.05.55,2.65,2.59,4.88,16.32.64,4,3.38,11.93,3.71,13,.53,1.71-5.92,1.19-6.31-.24a27,27,0,0,0-2.78-6.9c-.65-1.26-7.46-16-9.46-20.32-4.07-8.72-1.51-11.09,4.63-12.8,6.93-1.93,14-2.06,17.26-3.71.74-.37-.1-4.44-.1-4.44Z"/><path class="bcf1121d-0fee-4a20-8f3d-98ad14f8d449" d="M238.62,302.94s.55,0,1.11,1.3a25.29,25.29,0,0,1,1.11,7.6c0,.75-1.48,1.12-2.59,1.12a7.3,7.3,0,0,1-2.6-.74l-3.9.92a33.78,33.78,0,0,1-6.68.19c-2.59-.19-.92-2.23.37-2.41s7.06-3.95,7.06-5.62-.75-2.42-.19-2.6A62.72,62.72,0,0,1,238.62,302.94Z"/><path class="bcf1121d-0fee-4a20-8f3d-98ad14f8d449" d="M227,207.07c-2.48.42-7,2-8.41-3.09s5-13,13-11.24c5.27-1.8,10.71,5.42,7.89,12.41C234,206.14,227,207.07,227,207.07Z"/><path class="bcf1121d-0fee-4a20-8f3d-98ad14f8d449" d="M224.7,208.35a1.68,1.68,0,0,1-.95,1,1.74,1.74,0,0,0,1.32-.37Z"/><path class="bcf1121d-0fee-4a20-8f3d-98ad14f8d449" d="M238.75,198.6c.54-.16,2.5-2.07,8,1.57,3.39,2.26,2.78,10.4,6.48,10.5-4.59,2.86-8.52-2.77-9.56-5.75s-4.26-3.42-4.92-3S238.75,198.6,238.75,198.6Z"/><path class="bcf1121d-0fee-4a20-8f3d-98ad14f8d449" d="M217,239.3c-.6,0-1.25,0-1.81,0-1.46,0-3.43-1.28-5.33-.85s-2.89-.09-3.43,1.57c-.45,1.4-1,1.84-1.53,3.41-.2.55-.49,1-.44,1.24.12.65.77.61,1.15,0a15.24,15.24,0,0,1,1.25-2.32c1.07-2.08,3-1,4.29-.57.92.34.47,1.53-1.29,1.79-1.44.2-1.39,1.21,0,1.34a11,11,0,0,0,5-1,19,19,0,0,1,2.65-.82Z"/></g></g></svg>