<svg xmlns="http://www.w3.org/2000/svg" viewBox="0 0 421.32 196.33"><defs><style>.e90ae8cf-6914-4cbe-ba07-1ad12a458f33{fill:#231815;}.acfe5050-6351-4614-b462-bf3d784595cd{fill:#050000;}</style></defs><title>evening</title><g id="a3b4c32c-cf19-414d-83d8-c08698ec64b8" data-name="レイヤー 2"><g id="a028e5c0-685b-42ba-a2d8-dc6877180fbb" data-name="夜"><path class="e90ae8cf-6914-4cbe-ba07-1ad12a458f33" d="M418.5,22.77s3.78-12.66,2.58-13.56a17.84,17.84,0,0,0-3-2c-1.2-.6-2.89-3-4.38-3-3,0-10-1.59-18.95-.65A64.73,64.73,0,0,0,377,2.7c-6.38-1.26-12-.86-14.6-1-6-.34-11.52-1.81-16.74-1-6.14-1.06-10.68-.7-11.51.3-1.49,1.8-5.39,10.17-6,16.15-2.39,2.29-5.68,13.15-5.68,17-3,3-7.48,15.84-7.18,17.93-2.69,1.5-7.48,12.26-6.57,14.35a26.41,26.41,0,0,0,2.09,3.89s-7.18-1.29-10-.7c-1.59-2-12-3.19-16.54-2.39-1.39-1.39-7.57-3-16.94-2.59-9.17-3.79-19.33-1.19-19.33-1.19l-1.5-.31c-1.19,1.8-2.39,9.57-1.79,11.07s4.48,2.39,4.48,2.39a3,3,0,0,0,.3,2.69c.7.92,35.4,12.28,51.34,17.33-3.19,3.5-13.72,14.55-24.53,20-12.95,6.57-27.7,11-29.3,11-.2,1.39.1.89.1.89l3.39,1.6A101,101,0,0,0,279,118.73c12.68-7.45,22.69-18.2,25.27-21.08,2.7.84,4.39,1.35,4.54,1.35a3.38,3.38,0,0,1,.77.15,29.33,29.33,0,0,0,15.67,10.11,30.61,30.61,0,0,0,15.74-.59l-.1-.81a17.36,17.36,0,0,1-2.78-.89c-1.5.5-6.09,1.2-12.26,1.1-3-.61-8.91-5.34-11.62-7.63a7.81,7.81,0,0,0,2.64.35c1.5-.29,23-.6,28.71,1.5s20.33,8.81,26.6,14.5a2.2,2.2,0,0,0,0,2.84s-16.89,19.13-35.57,28.7c-14.17,7.25-22.72,9.56-23.92,9.86v1.49l3.44,1.65s38.57-11.36,59.19-40.06a2.41,2.41,0,0,0,2.24-.15s9.27,8.82,18.69,12.11a21.93,21.93,0,0,0,17.49-1l-.15-1-3.44-1.35s-9.57,3.14-14.95,1.5c-4.48-2.4-14.8-9.86-16.44-12,.3-1.19.75-1.64,0-2.68,0,0,18.53-25.12,25.11-41.26S418.5,22.77,418.5,22.77Zm-44.45,92.07c-1.8-1.29-16.44-12-29-13.85-.29-.1.1-.8,1.3-.69s11.37.79,13.86,1.89,11,4.08,12.15,4.68,5.69,2,6.78,1.4C379.13,108.27,375.84,113.55,374.05,114.84Zm15.74-22.52-4-3.29a15.66,15.66,0,0,0,5.78,0C391.18,89.73,389.79,92.32,389.79,92.32Z"/><path class="acfe5050-6351-4614-b462-bf3d784595cd" d="M75.42,178.55c2.14-.71,4-4.51,7.13-11.16,1.5-3.23,4.56-6,7.32-8a19.69,19.69,0,0,1,8.84-6c10.85-3.78,29.22-2.74,40.05-6.12,10.08-3.15,15.78-3.62,15.78-3.62-2.24-.75-9.5-4-2.84-17.27,2.58-5.13,3-6,5.32-7.81.15-2.14,3.37-3.81,6.12-5.87,3.84-2.88,9.45-3.73,13.19-2,4.37,2,14.17-1,18.4-2.73a3.83,3.83,0,0,1,3.24-.25,2.05,2.05,0,0,1,.74,3.23c1.25,1.24,1.69,4.66-1.4,8.46.5,2.48-.05,2.33-1.43,4.75-2,3.48-9.74,6.41-12.59,11.4-1.62,2.84-3.1,5.19-4,13.94-.77,7.67.67,15.38-4,22.88-4.48,7.21-14.93,10-14.93,11.94a8,8,0,0,0,3.24,5.72c1.74,1.24,1.49,2.73.25,3.73,0,2.24-1.74,2.24-3.24,1.74-.74,1.74-3.48.25-4.23-.25-2.24-.25-3-.5-3.48-2s-2-13.93-2-13.93a16.51,16.51,0,0,0-.25,4c.25,1-12.45,1.3-19.92-1.68s-23.79,1.61-27.27,2.86-8.4,1.1-9.4-.64c-1-1.49-.81,3.37.69,4.12s3.73,2.73,2.49,4a1.74,1.74,0,0,1-2.24,2.48c-2,0-5-.74-5.48-2s-1.24-6-2.73-9.45-2.24-8.7-.25-9.2a9.92,9.92,0,0,1-.75-5A19.73,19.73,0,0,0,84,171.9c-2.84,5.94-5.94,7.6-8.31,7.84S73.28,179.26,75.42,178.55Z"/><path class="e90ae8cf-6914-4cbe-ba07-1ad12a458f33" d="M67.43,41.84C67.72,38.38,70.59,18,64.17,14,60.41,11.62,63,5.33,70,13.17c1.75,1.94,3.08,5.68,2.78,13.78-.32,8.37-1.34,17.74-.54,23,1.51,9.88-.13,11.39.28,13.86s2.74,11.94,2.6,13.86-2,4.12-4.52,3.16-1-2.34-.14-3,1.78-4.8-.82-6.59-5.77-5.9-6.32-5.76-3.15,6.17-4,9.19-5.63,7.82-9.06,7.69-2.47-2.61-1.24-3,5.08-3.16,5.22-4.94-.14-3.43-2.61-8.78c-2.74,1-11.52,1.64-15.64.82,0,2.33-1.65,10,.69,11.11s1.92,2.75,1.09,3.43-3.56-.27-5.76-1.78-3.57-11.39-4.25-11.25-2.89,11.94-6,12.49-4.39-.28-3.84-1.79,1.37-1.51,2.33-1.92,2.61-8.1,1.65-10.84c-.66-1.89-8.24-9.88-10-11.39S5.55,53,3.49,53.09,1,51.72.47,51a1,1,0,0,1-.14-1.51c.83-.82,2.2-6.31,3.57-7.13s4.67-2.47,4.8-2.88.55-3.16,1.92-3.71,3.3,3.16,4,4.53,15.65,2.74,20.59,1.92,14-1.92,20-1.51S67.27,43.7,67.43,41.84Z"/></g></g></svg>