<svg xmlns="http://www.w3.org/2000/svg" viewBox="0 0 497.48 255.88"><defs><style>.b458040c-fd3c-4f20-aabc-9adcb7ff60f0{fill:#221714;}.f2f08623-b847-4058-a3c9-79623ac4e880{fill:#231815;}</style></defs><title>morning</title><g id="baaab680-7ac2-4fee-861c-02e4dd6f7401" data-name="レイヤー 2"><g id="a58226ac-ee98-4603-b327-af25d8dbb25f" data-name="朝"><path class="b458040c-fd3c-4f20-aabc-9adcb7ff60f0" d="M108.49,59.4h-.87V55.9H106v3.5H103.1v2.91h-2.81v1.75h.87v1h-.87v1.75h.87v1h-.87v1.76h.87v1h-.87v1.75h.87v1h-.87V75h.87v1h-.87v1.75h.87v.06H99.52a3.49,3.49,0,0,0-6.58,0h-2v1.55h.51V90.17l-4.06-2.82L82.05,91v.86c-.51-2.75-.92-5.44-1.22-7.87-.27-2.15-.47-4.09-.59-5.71,0-.44-.07-.86-.09-1.24h5.49l-5.59-4.74V68.66h5.59l-5.59-4.73V60.45l2.56-3.52H71.07l2.56,3.52v3.48L68,68.66h5.59v3.68L68,77.08h5.49c-.06.92-.14,2-.26,3.19a133.83,133.83,0,0,1-2.11,14l-.77-.63V91.26l.6.5v-1L66.8,87.35l-4.18,3.42v1l.6-.5v2.36l-.71.58V81.41H61.07V78.76H56.56v2.65H51.25V67.48h-1.4V65.39h1.4V64h-8.7v1.39h1.39v2.09H42.55V85.91H37.68V63.3h-9v1.4h2.09v2.43H28.64v19l-3.74-1.9-3.65,1.85V79.38H19.64V76.43h-5v2.95H8.12v4.43H6.05v2.07H8.12v2.36H6.56l-1.1-.89L1.27,90.77v.4H0v8.3H73.38V97.06l.61.49v-1l-.32-.26L76.76,94h.12l3.56,2.7v2.82h29.77V97.72h-.87v-1h.87V95h-.87V94h.87V92.27h-.87v-1h.87V89.54h-.87v-1h.87V86.82h-.87v-1h.87V84.1h-.87v-1h.87V81.37h-.87v-1h.87V78.65h-.87v-1h.87V75.93h-.87V75h.87V73.2h-.87v-1h.87V70.48h-.87v-1h.87V67.75h-.87v-1h.87V65h-.87v-1h.87V62.31h-1.72ZM6.05,91.46V93H4.68V91.46Zm0,5.92H4.68V95.86H6.05Zm7.15-.27H11.84V95.63H13.2Zm0-4.71H11.84V90.92H13.2Zm0-4.7H11.84V86.22H13.2Zm0-4.71H11.84V81.51H13.2Zm3.72,14.12H15.56V95.63h1.36Zm0-4.71H15.56V90.92h1.36Zm0-4.7H15.56V86.22h1.36Zm0-4.71H15.56V81.51h1.36Zm7,9.84H22.55v-2h1.36Zm1.67,5H24.22v-2h1.36Zm1.67-5H25.89v-2h1.36Zm7.83-23.36h.84v2h-.84Zm0,5.1h.84v2h-.84Zm0,5.1h.84v2h-.84ZM32.8,69.47h.84v2H32.8Zm0,5.1h.84v2H32.8Zm0,5.1h.84v2H32.8Zm-2.1-10.2h.84v2H30.7Zm0,5.1h.84v2H30.7Zm0,5.1h.84v2H30.7Zm0,5.11h.84v2H30.7Zm1.93,11.87H31.12V95.44h1.51Zm0-2.69H31.12V92.75h1.51Zm0-2.68H31.12V90.07h1.51Zm.17-6.5h.84v2H32.8ZM35,96.65H33.44V95.44H35ZM35,94H33.44V92.75H35Zm0-2.68H33.44V90.07H35Zm.12-6.5h.84v2h-.84Zm2.2,11.87H35.76V95.44h1.52Zm0-2.69H35.76V92.75h1.52Zm0-2.68H35.76V90.07h1.52Zm2.32,5.37H38.09V95.44H39.6Zm0-2.69H38.09V92.75H39.6Zm0-2.68H38.09V90.07H39.6Zm2.33,5.37H40.41V95.44h1.52Zm0-2.69H40.41V92.75h1.52Zm0-2.68H40.41V90.07h1.52Zm6.92,2.08V94H47.38V92.75H48.9v.61Zm-1.47-2.08V90.07h1.47v1.17h0v0Zm-.22-21.81H48v2h-.84Zm0,5.1H48v2h-.84Zm0,5.1H48v2h-.84Zm-2.1-10.2h.84v2h-.84Zm0,5.1h.84v2h-.84Zm0,5.1h.84v2h-.84Zm0,5.11h.84v2h-.84Zm-.81,11.87H42.74V95.44h1.51Zm0-2.69H42.74V92.75h1.51Zm0-2.68H42.74V90.07h1.51Zm2.32,5.37H45.06V95.44h1.51Zm0-2.69H45.06V92.75h1.51Zm0-2.68H45.06V90.07h1.51Zm.59-6.5H48v2h-.84ZM48.9,96.65H47.38V95.44H48.9Zm6.38.7H54.05V96h1.23Zm0-4.23H54.05V91.79h1.23Zm0-4.23H54.05V87.56h1.23Zm0-4.24H54.05V83.32h1.23Zm3.35,12.7H57.4V96h1.23Zm0-4.23H57.4V91.79h1.23Zm0-4.23H57.4V87.56h1.23Zm0-4.24H57.4V83.32h1.23Zm7,13.49H64.3V96.77h1.37Zm1.82-5.62H66.12V91.16h1.37Zm1.82,5.62H67.94V96.77h1.37ZM80.38,86.5c.15,1,.31,2.13.5,3.24l-3.61-3h3.11ZM78.53,60.72l-1.72,1.22-1.72-1.22Zm-3.09-.84L76.81,59l1.38.88Zm1.87,19.71,2.08-2.17c0,.66.1,1.39.17,2.17Zm2.3.49a2.46,2.46,0,0,1,0,.28c.08.73.16,1.51.25,2.32l-2.49-2.6Zm-.94-15.49-1.86,1.32L75,64.59ZM75,63.75l1.79-1.26,1.79,1.26Zm4.26,1v2.94L77.2,66.18Zm-.54,3.11H74.88l1.93-1.37Zm.11.84-2,1.44-2-1.44Zm.43.25v2.94L77.2,70.38ZM79,72.17h-4.3l2.15-1.52Zm-.22.84-1.93,1.37L74.87,73Zm-.07,3.23H75l1.86-1.32Zm.45.84-2.31,2.4-2.31-2.4ZM77.2,74.65l2.08-1.47v1.37c0,.43,0,1,0,1.6Zm2.08-11L77.2,62.21l2.08-1.47Zm-2.86-1.47-2,1.43V60.79Zm0,4-2,1.43V64.75Zm0,4.2-2,1.42V69Zm0,4.27-2.06,1.46c0-.61,0-1.14,0-1.56V73.22Zm-.11,4.94H74.12c0-.41.07-.82.1-1.2s0-.62.06-.91Zm-.08.49-2.42,2.53c.1-.89.19-1.74.26-2.53Zm.58,0L80,83.4a1.49,1.49,0,0,0,0,.21L76.92,86.2H76.7l-3-2.54c0-.11,0-.22,0-.33Zm3.52,6.09H77.61l2.45-2.06C80.14,84.81,80.23,85.5,80.33,86.2Zm3.06-10H80.1v-.1c0-.63,0-1.17,0-1.59V73.41Zm0-8.42H80.05V65ZM81,57.76l-1.53,2.12H79l-1.78-1.14,1.52-1Zm-3.09,0-1.11.71-1.1-.71Zm-5.26,0h2.22l1.52,1-1.8,1.14h-.4ZM70.29,67.82,73.63,65v2.83Zm0,8.42,3.34-2.83v1.14c0,.42,0,1,0,1.59v.1Zm3.33,7.94,2.39,2H73.35C73.44,85.51,73.53,84.84,73.62,84.18Zm-.34,2.51h3.07l-3.54,3C73,88.66,73.14,87.66,73.28,86.69Zm0,9.33-1.48-1.21L72,94h4Zm-1.2-2.56q.27-1.38.51-2.73l3.61,2.73Zm4.7-.11-4-3.07,4-3.4,4,3.4ZM81,90.69c.16.91.34,1.84.52,2.77H77.4ZM77.62,94h3.93l-1.11.6v1.54Zm7.26,3.41H83.81V95.93h1.07Zm1.47-4.3H85.29V91.63h1.06Zm1.56,4.3H86.84V95.93h1.07Zm1.56-4.3H88.4V91.63h1.07ZM91,97.36H89.88V95.93H91Zm1.94-17.43h1v1.45h-1Zm0,3.36h1v1.46h-1Zm0,3.36h1v1.46h-1Zm0,3.37h1v1.46h-1Zm1,3.36v.92l-1-.52v-.4Zm2.85,4.83h-1V96.75h1Zm0-3.37h-1V93.38h1Zm0-3.36h-1V90h1Zm0-3.37h-1V86.65h1Zm0-3.36h-1V83.29h1Zm0-3.37h-1V79.93h1Zm0-3.85h-1V76.6h1Zm2.86,20.68h-1V96.75h1Zm0-3.37h-1V93.38h1Zm0-3.36h-1V90h1Zm0-3.37h-1V86.65h1Zm0-3.36h-1V83.29h1Zm0-3.37h-1V79.93h1Zm1.59,16.34H101v-1h.14Zm0-2.73H101V94h.14Zm0-2.72H101v-1h.14Zm0-2.73H101v-1h.14Zm0-2.72H101v-1h.14Zm0-2.72H101v-1h.14Zm0-2.73H101v-1h.14ZM106,96.2h-2V94.57h2Zm0-4.87h-2V89.71h2Zm0-4.87h-2V84.84h2Zm0-4.86h-2V80h2Zm0-4.86h-2V75.11h2Zm0-4.87h-2V70.25h2ZM106,67h-2V65.38h2Z"/><polygon class="b458040c-fd3c-4f20-aabc-9adcb7ff60f0" points="271.7 86.36 270.87 86.36 270.87 86.77 271.7 86.77 272.12 86.77 272.12 86.36 272.12 85.53 271.7 85.53 271.7 86.36"/><path class="b458040c-fd3c-4f20-aabc-9adcb7ff60f0" d="M489.91,91.17V86.89L483,84.52v2l-6-2v2l-5.71-1.95V70.05L469,63.8V55.15h-1.77V56.6H463V55.15H461.2V63.8l-2.29,6.25V84.74h-6.84c.6-17,.24-31.4-8.54-39.62-7.92,7.42-9,19.87-8.69,34.7h-4.35V73.9h-9.12V61.26a20.1,20.1,0,0,0-4-2.14V53c-8.55,1.07-12.83,6.41-12.83,9.08V88.33h-4.07v.15h-.12v-2h1.75V84.15h-1.75v-2h1.75V79.82h-1.75v-2h1.75V75.5h-1.75v-2h1.75V71.17h-1.75v-2h1.75V66.84h-4.93V60.18h-6.95v6.66h-4.93v2.33H387v2h-1.75V73.5H387v2h-1.75v2.33H387v2h-1.75v2.33H387v2h-1V82.87h-14v1.85h.79v8.16h-4.08V46.79h-2.4V56.6l-10.37,6.16V77.48h-4.25l-.41-2a1.59,1.59,0,1,0-1.91,0l-.42,2h-9.51v2.37h1.58v4.61h-1.58v2.37h1.58v.26h-8.77a74.17,74.17,0,0,1-1.1-7.84h1.56l.55-6.42h-3.56A109.87,109.87,0,0,1,329,59.67h1.06v-4.1h-1.67V47h-1.23V37.63h-.77V47h-1.23v8.56h-1.66v4.1h1.05a109.87,109.87,0,0,1-.83,13.16h-3.56l.56,6.42h1.55a80.7,80.7,0,0,1-2,12.19V86.68h-7.85V73.77l-1.81-1.51V70.44l-1.21-1a3.27,3.27,0,0,0-6.45,0l-1.21,1v1.82l-1.82,1.51V89.13l-2.18-1.78-2.42,2-.76-23.28h1.19l1.8-8.78h-3.28L293.34,30h.91l1.25-6.13h-2.36l-.36-11.09h-1.26V5.47h.55V3.34h-.55V0H290.2V3.34h-.55V5.47h.55v7.29h-1.26l-.36,11.09h-2.37L287.47,30h.91l-.89,27.29h-3.28l1.8,8.78h1.19l-.69,21.3h-5.24v1.58h-5.42V82.61h-8.16v6.32h-5.1V82.61h-7.18v-1.9l-5.14-6-5,5.84-5-5.84-5.14,6V91.93h-1.9V70.63h-14V42.27h-3.21V40.58h3.21V39.23H204.4v1.35h3.21v1.69H204.4v52l-.84-.69V91.26l.6.5v-1L200,87.35l-4.19,3.42v1l.61-.5v2.36l-3.17,2.59V67.6l-7.79-2.67-5.34,2.26V79h-2.3l-2.38-2.74L173,79h-1.66V54.73l-5-1.73-5,1.73v4.32h-6.92V54.73l-5-1.73-5,1.73v33.1h-2.33V74l-9.48-5v5.39h-1.12V47h-2V43.46H127.9V40.84h-2.15V32.07h-1.07v8.77h-2.15v2.62h-1.74V47h-2V69.6c-.19-.43-.4-.84-.62-1.23h-4.91c-2.66,4.5-2.66,12.69-2.66,15.14v16h82.64V97.2l.17-.14v2.41h95.09l2.37-6.1,2.37,6.1h30s.73-6.87,3.51-6.87c1.75,0,2.69,2.75,3.14,4.77v2.1H492v-8.3ZM293.39,25H294v1.14h-.57Zm-5.06,1.14h-.57V25h.57ZM118,75.69h.82v1.79H118Zm0,4.13h.82v1.8H118ZM118,84h.82v1.79H118Zm0,4.13h.82v1.79H118Zm0,4.13h.82V94H118Zm-4.52,5.93h-.92V96.36h.92Zm0-4.13h-.92v-1.8h.92Zm0-4.14h-.92V88.09h.92Zm0-4.13h-.92V84h.92Zm0-4.13h-.92v-1.8h.92Zm0-4.14h-.92V75.69h.92Zm2.72,20.67h-.92V96.36h.92Zm0-4.13h-.92v-1.8h.92Zm0-4.14h-.92V88.09h.92Zm0-4.13h-.92V84h.92Zm0-4.13h-.92v-1.8h.92Zm0-4.14h-.92V75.69h.92Zm0-4.13h-.92V71.56h.92Zm1.8,24.8V96.36h.82v1.79Zm4.5-1.5h-1.13V93.58h1.13Zm0-7.07h-1.13V86.51h1.13Zm0-7.07h-1.13V79.45h1.13Zm0-7.07h-1.13V72.38h1.13Zm0-7.07h-1.13V65.31h1.13Zm0-7.07h-1.13V58.24h1.13Zm0-7.07h-1.13V51.17h1.13Zm3.32,42.42h-1.13V93.58h1.13Zm0-7.07h-1.13V86.51h1.13Zm0-7.07h-1.13V79.45h1.13Zm0-7.07h-1.13V72.38h1.13Zm0-7.07h-1.13V65.31h1.13Zm0-7.07h-1.13V58.24h1.13Zm0-7.07h-1.13V51.17h1.13Zm3.32,42.42H128V93.58h1.12Zm0-7.07H128V86.51h1.12Zm0-7.07H128V79.45h1.12Zm0-7.07H128V72.38h1.12Zm0-7.07H128V65.31h1.12Zm0-7.07H128V58.24h1.12Zm0-7.07H128V51.17h1.12Zm4.65,43.16h-1.16V95.08h1.16Zm0-5.32h-1.16V89.76h1.16Zm0-5.32h-1.16V84.44h1.16Zm0-5.33h-1.16V79.11h1.16Zm3.42,16H136V95.08h1.16Zm0-5.32H136V89.76h1.16Zm0-5.32H136V84.44h1.16Zm0-5.33H136V79.11h1.16Zm3.42,16h-1.16V95.08h1.16Zm0-5.32h-1.16V89.76h1.16Zm0-5.32h-1.16V84.44h1.16Zm0-5.33h-1.16V79.11h1.16Zm10,14.43h-1.57V92.71h1.57Zm0-7.17h-1.57V85.54h1.57Zm0-7.17h-1.57V78.37h1.57Zm0-7.18h-1.57V71.2h1.57Zm0-7.17h-1.57V64h1.57Zm.6-8.6h-3.35V56.34l1.67-.58,1.68.58Zm4.64,37.29H154.3V92.71h1.57Zm0-7.17H154.3V85.54h1.57Zm0-7.17H154.3V78.37h1.57Zm0-7.18H154.3V71.2h1.57Zm0-7.17H154.3V64h1.57Zm5.79,28.69h-1.57V92.71h1.57Zm0-7.17h-1.57V85.54h1.57Zm0-7.17h-1.57V78.37h1.57Zm0-7.18h-1.57V71.2h1.57Zm0-7.17h-1.57V64h1.57Zm5.24,28.69h-1.57V92.71h1.57Zm0-7.17h-1.57V85.54h1.57Zm0-7.17h-1.57V78.37h1.57Zm0-7.18h-1.57V71.2h1.57Zm0-7.17h-1.57V64h1.57Zm1.19-8.6h-3.35V56.34l1.67-.58,1.68.58Zm4.29,37.36h-.91V94.1h.91Zm0-4.1h-.91V90h.91Zm0-4.1h-.91V85.9h.91Zm0-4.1h-.91V81.8h.91Zm3.5,12.3H175V94.1h.92Zm0-4.1H175V90h.92Zm0-4.1H175V85.9h.92Zm0-4.1H175V81.8h.92Zm3.49,12.3h-.91V94.1h.91Zm0-4.1h-.91V90h.91Zm0-4.1h-.91V85.9h.91Zm0-4.1h-.91V81.8h.91Zm8.16,12.44h-.82V94l.82,0Zm0-4.62-.82-.06V89.27l.82.09Zm0-4.62-.82-.12V84.6l.82.14Zm0-4.62-.82-.18v-2.1l.82.2Zm0-4.63-.82-.23v-2.1l.82.26Zm0-4.62-.82-.29v-2.1l.82.31Zm2.28,23.11h-.75V94l.75,0Zm0-4.46-.75,0v-2l.75.08Zm0-4.46-.75-.1V85l.75.13Zm0-4.45-.75-.16v-2l.75.19Zm0-4.46-.75-.22V76l.75.24Zm0-4.46-.75-.27v-2l.75.3Zm2.13,22.29h-.7v-2l.7,0Zm0-4.3-.7-.05v-2l.7.08Zm0-4.31-.7-.1v-2l.7.12Zm0-4.31-.7-.15V81l.7.18Zm0-4.3-.7-.2v-2l.7.22Zm0-4.31-.7-.25v-2l.7.28Zm6.9,23.61h-1.37V96.77h1.37Zm1.82-5.62H199.3V91.16h1.36Zm1.82,5.62h-1.36V96.77h1.36Zm6.38-3h-1.21v-3.3h1.21Zm0-7.61h-1.21V84.19h1.21Zm0-7.62h-1.21v-3.3h1.21Zm0-7.61h-1.21V69h1.21Zm0-7.62h-1.21v-3.3h1.21Zm0-7.61h-1.21V53.73h1.21Zm0-7.62h-1.21v-3.3h1.21Zm3.58,45.69h-1.22v-3.3h1.22Zm0-7.61h-1.22V84.19h1.22Zm0-7.62h-1.22v-3.3h1.22Zm0-7.61h-1.22V69h1.22Zm0-7.62h-1.22v-3.3h1.22Zm0-7.61h-1.22V53.73h1.22Zm0-7.62h-1.22v-3.3h1.22ZM216,95.11H214.8v-3.3H216Zm0-7.61H214.8V84.19H216Zm0-7.62H214.8v-3.3H216Zm0-7.61H214.8V69H216Zm0-7.62H214.8v-3.3H216ZM216,57H214.8V53.73H216Zm0-7.62H214.8v-3.3H216ZM224.71,97h-2V95h2Zm0-6.91h-2v-2h2Zm0-6.91h-2v-2h2Zm0-6.9h-2v-2h2ZM228.59,97h-2V95h2Zm0-6.91h-2v-2h2Zm0-6.91h-2v-2h2Zm0-6.9h-2v-2h2Zm12.48,17.46H239.3V91.86h1.77Zm0-5.77H239.3V86.09h1.77Zm5.09,5.77h-1.78V91.86h1.78Zm0-5.77h-1.78V86.09h1.78Zm5.09,5.77h-1.78V91.86h1.78Zm0-5.77h-1.78V86.09h1.78ZM265,96.76h-1.13v-2H265Zm0-3.86h-1.13v-2H265Zm3.67,3.86h-1.13v-2h1.13Zm0-3.86h-1.13v-2h1.13Zm3.66,3.86h-1.12v-2h1.12Zm0-3.86h-1.12v-2h1.12ZM271.77,88a1.67,1.67,0,1,1,1.67-1.67A1.67,1.67,0,0,1,271.77,88ZM276,96.76h-1.13v-2H276Zm0-3.86h-1.13v-2H276Zm3.67,3.86h-1.13v-2h1.13Zm0-3.86h-1.13v-2h1.13Zm7.68-32.29h-.79V59h.79Zm1,2.9h-.79V61.93h.79ZM292,25h.57v1.14H292Zm-1.4,0h.57v1.14h-.57Zm-.67,2.09h.57v1.14h-.57ZM289.17,25h.57v1.14h-.57Zm-.67,2.09h.57v1.14h-.57Zm.8,33.5h-.79V59h.79Zm1,2.9h-.79V61.93h.79Zm.91-2.9h-.79V59h.79Zm.07-33.5h.57v1.14h-.57Zm1,36.4h-.79V61.93h.79Zm.92-2.9h-.79V59h.79Zm.09-32.36h-.57V27.11h.57ZM294.37,59h.79v1.58h-.79Zm-.92,2.9h.79v1.58h-.79Zm4.84,35.45h-1.37V95.86h1.37Zm0-4.4h-1.37V91.46h1.37Zm5,3h-.91V94.36h.91Zm0-4.33h-.91V90h.91Zm0-4.33h-.91V85.7h.91Zm0-4.32h-.91V81.38h.91Zm0-4.33h-.91V77.05h.91ZM306.59,96h-.91V94.36h.91Zm0-4.33h-.91V90h.91Zm0-4.33h-.91V85.7h.91Zm0-4.32h-.91V81.38h.91Zm0-4.33h-.91V77.05h.91Zm0-4h-.91V73.1h.91ZM309.93,96H309V94.36h.91Zm0-4.33H309V90h.91Zm0-4.33H309V85.7h.91Zm0-4.32H309V81.38h.91Zm0-4.33H309V77.05h.91Zm13.57-1H322v-1.2h1.47Zm0-2.22H322v-1.2h1.47Zm4.91-18.46h.86v1.33h-.86Zm-4.15,1.33V57.06h.86v1.33Zm1.91,19.35H324.7v-1.2h1.47Zm0-2.22H324.7v-1.2h1.47Zm1-17.13h-.87V57.06h.87Zm1.63,19.35h-1.46v-1.2h1.46Zm0-2.22h-1.46v-1.2h1.46Zm1.2-1.2h1.47v1.2H330Zm0,2.22h1.47v1.2H330Zm16.68,20.1H345V95h1.67Zm0-6.78H345V88.19h1.67Zm0-6.78H345V81.41h1.67Zm3.92-7.32a1.85,1.85,0,0,0,.42-.11l.37,1.83h-.79Zm-.79-.11a1.91,1.91,0,0,0,.41.11v1.72h-.79Zm1.63,21H349.8V95h1.67Zm0-6.78H349.8V88.19h1.67Zm0-6.78H349.8V81.41h1.67Zm3.9-3.23h.69v4.61h-.69Zm.69,7v1.5h-.69v-1.5Zm3.79,10.43h-.91V94.52h.91Zm0-6.08h-.91V88.45h.91Zm0-6.07H358.8V82.37h1.05Zm0-6.08H358.8V76.3h1.05Zm0-6.07H358.8V70.22h1.05Zm0-6.08H358.8V64.15h1.05ZM363,97.26h-1.06V94.52H363Zm0-6.08h-1.06V88.45H363Zm0-6.07h-1.06V82.37H363ZM363,79h-1.06V76.3H363ZM363,73h-1.06V70.22H363Zm0-6.08h-1.06V64.15H363Zm3.12,30.38H365V94.52h1.06Zm0-6.08H365V88.45h1.06Zm0-6.07H365V82.37h1.06Zm0-6.08H365V76.3h1.06Zm0-6.07H365V70.22h1.06Zm0-6.08H365V64.15h1.06Zm12.19,26.5h-1.49v-.5h-.06V91.56h1.55Zm0-3.95h-1.55V87.61h1.55Zm3.24,3.95H380V91.56h1.55Zm0-3.95H380V87.61h1.55ZM387,97.14h-1.75v-2H387Zm0-4.33h-1.75v-2H387Zm0-4.33h-1.75v-2H387Zm3.18,8.66H388v-2h2.19Zm0-4.33H388v-2h2.19Zm0-4.33H388v-2h2.19Zm0-4.33H388v-2h2.19Zm0-4.33H388v-2h2.19Zm0-4.32H388v-2h2.19Zm0-4.33H388v-2h2.19Zm10.13,19.64h.12v2h-.12ZM394.43,64.4H393v-2h1.47Zm4.93,32.74h-2.19v-2h2.19Zm0-4.33h-2.19v-2h2.19Zm0-4.33h-2.19v-2h2.19Zm0-4.33h-2.19v-2h2.19Zm0-4.33h-2.19v-2h2.19Zm0-4.32h-2.19v-2h2.19Zm0-4.33h-2.19v-2h2.19Zm1,26v-2h.12v2Zm8.8-1.44H407.6V92.85h1.55Zm0-6.56H407.6V86.29h1.55Zm0-6.56H407.6V79.73h1.55Zm0-6.56H407.6V73.17h1.55Zm0-6.56H407.6V66.61h1.55Zm0-6.56H407.6V60.05h1.55Zm4.58,32.8h-1.55V92.85h1.55Zm0-6.56h-1.55V86.29h1.55Zm0-6.56h-1.55V79.73h1.55Zm0-6.56h-1.55V73.17h1.55Zm0-6.56h-1.55V66.61h1.55Zm0-6.56h-1.55V60.05h1.55Zm4.58,32.8h-1.55V92.85h1.55Zm0-6.56h-1.55V86.29h1.55Zm0-6.56h-1.55V79.73h1.55Zm0-6.56h-1.55V73.17h1.55Zm0-6.56h-1.55V66.61h1.55Zm28.71-10h1.26v2.69H447Zm0,5.85h1.26V68H447Zm0,5.85h1.26v2.69H447Zm0,5.86h1.26v2.68H447Zm-7.28,20.24h-1.26V94.6h1.26Zm0-5.85h-1.26V88.75h1.26Zm0-5.85h-1.26V82.9h1.26Zm0-5.86h-1.26V77.05h1.26Zm0-5.85h-1.26V71.19h1.26Zm0-5.85h-1.26V65.34h1.26Zm0-5.85h-1.26V59.49h1.26Zm4.43,35.11h-1.26V94.6h1.26Zm0-5.85h-1.26V88.75h1.26Zm0-5.85h-1.26V82.9h1.26Zm0-5.86h-1.26V77.05h1.26Zm0-5.85h-1.26V71.19h1.26Zm0-5.85h-1.26V65.34h1.26Zm0-5.85h-1.26V59.49h1.26Zm0-5.85h-1.26V53.64h1.26Zm4.11,41H447V94.6h1.26Zm0-5.85H447V88.75h1.26Zm0-5.85H447V82.9h1.26v2.69Zm14.3,11.25h-1v-2h1Zm0-4.7h-1v-2h1Zm0-4.7h-1v-2h1Zm0-4.69h-1v-2h1Zm0-4.7h-1V76h1Zm0-4.7h-1v-2h1Zm3,23.49h-1v-2h1Zm0-4.7h-1v-2h1Zm0-4.7h-1v-2h1Zm0-4.69h-1v-2h1Zm0-4.7h-1V76h1Zm0-4.7h-1v-2h1Zm0-4.69h-1v-2h1Zm0-6.28h-1v-2h1Zm3,34.46h-1v-2h1Zm0-4.7h-1v-2h1Zm0-4.7h-1v-2h1Zm0-4.69h-1v-2h1Zm0-4.7h-1V76h1Zm0-4.7h-1v-2h1ZM476,93.45h-1.52V91.16H476Zm5.24,0h-1.52V91.16h1.52Zm5.24,0h-1.52V91.16h1.52Z"/><path class="f2f08623-b847-4058-a3c9-79623ac4e880" d="M156.36,148.69a8,8,0,0,0-2-4.93l-.71-1.52.57-.18s-2-3.8-2.67-4.79S139.45,115,139.45,115a84.81,84.81,0,0,0-2.91-9.79,25,25,0,0,0-.19-6.57,10.2,10.2,0,0,0,3.08-2.46C141,94,153.94,82.4,153.35,81s-6.48-8.25-7.55-9.24-3.3-4.82-4.49-4.22A26.16,26.16,0,0,0,139.1,69c-1.7-1.75-5.5-5.61-8.55-8.4a25.27,25.27,0,0,0-5.89-6,11.57,11.57,0,0,0-.71-2.48,4,4,0,0,0-1.49.54,7.82,7.82,0,0,1-.25-1.35c0-.6,1.28-7.77,1-8.71s-2.76-5.42-7-3.76c-4.87-.83-9.88,3.82-7,7.19a27.1,27.1,0,0,0,.47,3.08,6.79,6.79,0,0,1,.42,1.12,13.25,13.25,0,0,1-.29,2.82c-.26.59.76.6,1.28.44s.76.52.76.52l.51.26s-.09.43.17.52.83,1.89,1.26,1.89,2.24-1.59,2.24-1.59l.64,1.55c-1.27.95-2.19,1.68-2.19,1.68l.71,1.83-1,17.89-1,21.7,2.12-.14-.71,6.48s-5.22,12.73-5.63,14.23c-1.27,4.65-3.95,14.23-3.95,14.65s-2.82,6.62-2.82,6.62l1.08.52-.37.33s-4.23,1.27-6.34.7-4.37-1.41-5.21-1,0,2.95,1.83,4.64,6.06,2.26,6.06,2.26,1.41.28,1.12,1.41,7,1.83,7.47,1,.57-3.8.71-4.5c.07-.36.28-1.29.48-2.13l1.21.58,2.11-5.78s5.35-15.36,5.49-15.78,6.91-13.52,6.91-13.52l6.34,9.15s4.42,7.47,5.54,8.31,7.19,10.85,7.19,10.85,1.64,5.22,1.64,5.64c0,.09.45,0,1.12-.12l-.28,1.67s-3.52,2.25-4.65,2.25-1.12,2.26-1.12,2.26a14.93,14.93,0,0,0,5.21.7,8.48,8.48,0,0,0,5.21-1.41,2.27,2.27,0,0,0,.85.71,33.5,33.5,0,0,0,4.65-1S156.64,150,156.36,148.69Zm-18.3-78.94c-1.45,1-3.12,2.28-4.51,3.31-.68-3.94-1.23-7.19-1.42-8.62,0-.24-.1-.48-.16-.72C134.44,66,136.88,68.52,138.06,69.75Z"/><path class="f2f08623-b847-4058-a3c9-79623ac4e880" d="M285.36,208.69a8,8,0,0,0-2-4.93l-.71-1.52.57-.18s-2-3.8-2.67-4.79S268.45,175,268.45,175a84.81,84.81,0,0,0-2.91-9.79,25,25,0,0,0-.19-6.57,10.2,10.2,0,0,0,3.08-2.46C270,154,282.94,142.4,282.35,141s-6.48-8.25-7.55-9.24-3.3-4.82-4.49-4.22A26.16,26.16,0,0,0,268.1,129c-1.7-1.75-5.5-5.61-8.55-8.4a25.27,25.27,0,0,0-5.89-6,11.57,11.57,0,0,0-.71-2.48,4,4,0,0,0-1.49.54,7.82,7.82,0,0,1-.25-1.35c0-.6,1.28-7.77.95-8.71s-2.76-5.42-7-3.76c-4.87-.83-9.88,3.82-7,7.19a27.1,27.1,0,0,0,.47,3.08,6.79,6.79,0,0,1,.42,1.12,13.25,13.25,0,0,1-.29,2.82c-.26.59.76.6,1.28.44s.76.52.76.52l.51.26s-.09.43.17.52.83,1.89,1.26,1.89,2.24-1.59,2.24-1.59l.64,1.55c-1.27,1-2.19,1.68-2.19,1.68l.71,1.83-1,17.89-1,21.7,2.12-.14-.71,6.48s-5.22,12.73-5.63,14.23c-1.27,4.65-3.95,14.23-3.95,14.65s-2.82,6.62-2.82,6.62l1.08.52-.37.33s-4.23,1.27-6.34.7-4.37-1.41-5.21-1,0,2.95,1.83,4.64,6.06,2.26,6.06,2.26,1.41.28,1.12,1.41,7.05,1.83,7.47,1,.57-3.8.71-4.5c.07-.36.28-1.29.48-2.13l1.21.58,2.11-5.78s5.35-15.36,5.49-15.78,6.91-13.52,6.91-13.52l6.34,9.15s4.42,7.47,5.54,8.31,7.19,10.85,7.19,10.85,1.64,5.22,1.64,5.64c0,.09.45,0,1.12-.12l-.28,1.67s-3.52,2.25-4.65,2.25-1.12,2.26-1.12,2.26a14.93,14.93,0,0,0,5.21.7,8.48,8.48,0,0,0,5.21-1.41,2.27,2.27,0,0,0,.85.71,33.5,33.5,0,0,0,4.65-1S285.64,210,285.36,208.69Zm-18.3-78.94c-1.45,1.05-3.12,2.28-4.51,3.31-.68-3.94-1.23-7.19-1.42-8.62,0-.24-.1-.48-.16-.72C263.44,126,265.88,128.52,267.06,129.75Z"/><path class="f2f08623-b847-4058-a3c9-79623ac4e880" d="M244.36,133.69a8,8,0,0,0-2-4.93l-.71-1.52.57-.18s-2-3.8-2.67-4.79S227.45,100,227.45,100a84.81,84.81,0,0,0-2.91-9.79,25,25,0,0,0-.19-6.57,10.2,10.2,0,0,0,3.08-2.46C229,79,241.94,67.4,241.35,66s-6.48-8.25-7.55-9.24-3.3-4.82-4.49-4.22A26.16,26.16,0,0,0,227.1,54c-1.7-1.75-5.5-5.61-8.55-8.4a25.27,25.27,0,0,0-5.89-6,11.57,11.57,0,0,0-.71-2.48,4,4,0,0,0-1.49.54,7.82,7.82,0,0,1-.25-1.35c0-.6,1.28-7.77.95-8.71s-2.76-5.42-7-3.76c-4.87-.83-9.88,3.82-7,7.19a27.1,27.1,0,0,0,.47,3.08,6.79,6.79,0,0,1,.42,1.12,13.25,13.25,0,0,1-.29,2.82c-.26.59.76.6,1.28.44s.76.52.76.52l.51.26s-.09.43.17.52.83,1.89,1.26,1.89,2.24-1.59,2.24-1.59l.64,1.55c-1.27.95-2.19,1.68-2.19,1.68l.71,1.83-1,17.89-1,21.7,2.12-.14-.71,6.48s-5.22,12.73-5.63,14.23c-1.27,4.65-3.95,14.23-3.95,14.65s-2.82,6.62-2.82,6.62l1.08.52-.37.33s-4.23,1.27-6.34.7-4.37-1.41-5.21-1,0,3,1.83,4.64,6.06,2.26,6.06,2.26,1.41.28,1.12,1.41,7.05,1.83,7.47,1,.57-3.8.71-4.5c.07-.36.28-1.29.48-2.13l1.21.58,2.11-5.78s5.35-15.36,5.49-15.78,6.91-13.52,6.91-13.52l6.34,9.15s4.42,7.47,5.54,8.31,7.19,10.85,7.19,10.85,1.64,5.22,1.64,5.64c0,.09.45,0,1.12-.12l-.28,1.67s-3.52,2.25-4.65,2.25-1.12,2.26-1.12,2.26a14.93,14.93,0,0,0,5.21.7,8.48,8.48,0,0,0,5.21-1.41,2.27,2.27,0,0,0,.85.71,33.5,33.5,0,0,0,4.65-1S244.64,135,244.36,133.69Zm-18.3-78.94c-1.45,1-3.12,2.28-4.51,3.31-.68-3.94-1.23-7.19-1.42-8.62,0-.24-.1-.48-.16-.72C222.44,51,224.88,53.52,226.06,54.75Z"/><path class="f2f08623-b847-4058-a3c9-79623ac4e880" d="M102.36,230.69a8,8,0,0,0-2-4.93l-.71-1.52.57-.18s-2-3.8-2.67-4.79S85.45,197,85.45,197a84.81,84.81,0,0,0-2.91-9.79,25,25,0,0,0-.19-6.57,10.2,10.2,0,0,0,3.08-2.46C87,176,99.94,164.4,99.35,163s-6.48-8.25-7.55-9.24-3.3-4.82-4.49-4.22A26.16,26.16,0,0,0,85.1,151c-1.7-1.75-5.5-5.61-8.55-8.4a25.27,25.27,0,0,0-5.89-6,11.57,11.57,0,0,0-.71-2.48,4,4,0,0,0-1.49.54,7.82,7.82,0,0,1-.25-1.35c0-.6,1.28-7.77,1-8.71s-2.76-5.42-7-3.76c-4.87-.83-9.88,3.82-7,7.19a27.1,27.1,0,0,0,.47,3.08,6.79,6.79,0,0,1,.42,1.12,13.25,13.25,0,0,1-.29,2.82c-.26.59.76.6,1.28.44s.76.52.76.52l.51.26s-.09.43.17.52.83,1.89,1.26,1.89,2.24-1.59,2.24-1.59l.64,1.55c-1.27,1-2.19,1.68-2.19,1.68l.71,1.83-1,17.89-1,21.7,2.12-.14-.71,6.48s-5.22,12.73-5.63,14.23c-1.27,4.65-4,14.23-4,14.65s-2.82,6.62-2.82,6.62l1.08.52-.37.33s-4.23,1.27-6.34.7-4.37-1.41-5.21-1,0,2.95,1.83,4.64,6.06,2.26,6.06,2.26,1.41.28,1.12,1.41,7,1.83,7.47,1,.57-3.8.71-4.5c.07-.36.28-1.29.48-2.13l1.21.58,2.11-5.78s5.35-15.36,5.49-15.78,6.91-13.52,6.91-13.52L77,201.52s4.42,7.47,5.54,8.31,7.19,10.85,7.19,10.85,1.64,5.22,1.64,5.64c0,.09.45,0,1.12-.12l-.28,1.67s-3.52,2.25-4.65,2.25-1.12,2.26-1.12,2.26a14.93,14.93,0,0,0,5.21.7,8.48,8.48,0,0,0,5.21-1.41,2.27,2.27,0,0,0,.85.71,33.5,33.5,0,0,0,4.65-1S102.64,232,102.36,230.69Zm-18.3-78.94c-1.45,1.05-3.12,2.28-4.51,3.31-.68-3.94-1.23-7.19-1.42-8.62,0-.24-.1-.48-.16-.72C80.44,148,82.88,150.52,84.06,151.75Z"/><path class="f2f08623-b847-4058-a3c9-79623ac4e880" d="M497.36,203.69a8,8,0,0,0-2-4.93l-.71-1.52.57-.18s-2-3.8-2.67-4.79S480.45,170,480.45,170a84.81,84.81,0,0,0-2.91-9.79,25,25,0,0,0-.19-6.57,10.2,10.2,0,0,0,3.08-2.46C482,149,494.94,137.4,494.35,136s-6.48-8.25-7.55-9.24-3.3-4.82-4.49-4.22A26.16,26.16,0,0,0,480.1,124c-1.7-1.75-5.5-5.61-8.55-8.4a25.27,25.27,0,0,0-5.89-6,11.57,11.57,0,0,0-.71-2.48,4,4,0,0,0-1.49.54,7.82,7.82,0,0,1-.25-1.35c0-.6,1.28-7.77,1-8.71s-2.76-5.42-7.05-3.76c-4.87-.83-9.88,3.82-7,7.19a27.1,27.1,0,0,0,.47,3.08,6.79,6.79,0,0,1,.42,1.12,13.25,13.25,0,0,1-.29,2.82c-.26.59.76.6,1.28.44s.76.52.76.52l.51.26s-.09.43.17.52.83,1.89,1.26,1.89,2.24-1.59,2.24-1.59l.64,1.55c-1.27,1-2.19,1.68-2.19,1.68l.71,1.83-1,17.89-1,21.7,2.12-.14-.71,6.48s-5.22,12.73-5.63,14.23c-1.27,4.65-3.95,14.23-3.95,14.65s-2.82,6.62-2.82,6.62l1.08.52-.37.33s-4.23,1.27-6.34.7-4.37-1.41-5.21-1,0,2.95,1.83,4.64,6.06,2.26,6.06,2.26,1.41.28,1.12,1.41,7.05,1.83,7.47,1,.57-3.8.71-4.5c.07-.36.28-1.29.48-2.13l1.21.58,2.11-5.78s5.35-15.36,5.49-15.78,6.91-13.52,6.91-13.52l6.34,9.15s4.42,7.47,5.54,8.31,7.19,10.85,7.19,10.85,1.64,5.22,1.64,5.64c0,.09.45,0,1.12-.12l-.28,1.67s-3.52,2.25-4.65,2.25-1.12,2.26-1.12,2.26a14.93,14.93,0,0,0,5.21.7,8.48,8.48,0,0,0,5.21-1.41,2.27,2.27,0,0,0,.85.71,33.5,33.5,0,0,0,4.65-1S497.64,205,497.36,203.69Zm-18.3-78.94c-1.45,1-3.12,2.28-4.51,3.31-.68-3.94-1.23-7.19-1.42-8.62,0-.24-.1-.48-.16-.72C475.44,121,477.88,123.52,479.06,124.75Z"/><path class="f2f08623-b847-4058-a3c9-79623ac4e880" d="M411.36,252.69a8,8,0,0,0-2-4.93l-.71-1.52.57-.18s-2-3.8-2.67-4.79S394.45,219,394.45,219a84.81,84.81,0,0,0-2.91-9.79,25,25,0,0,0-.19-6.57,10.2,10.2,0,0,0,3.08-2.46C396,198,408.94,186.4,408.35,185s-6.48-8.25-7.55-9.24-3.3-4.82-4.49-4.22A26.16,26.16,0,0,0,394.1,173c-1.7-1.75-5.5-5.61-8.55-8.4a25.27,25.27,0,0,0-5.89-6,11.57,11.57,0,0,0-.71-2.48,4,4,0,0,0-1.49.54,7.82,7.82,0,0,1-.25-1.35c0-.6,1.28-7.77,1-8.71s-2.76-5.42-7.05-3.76c-4.87-.83-9.88,3.82-7,7.19a27.1,27.1,0,0,0,.47,3.08,6.79,6.79,0,0,1,.42,1.12,13.25,13.25,0,0,1-.29,2.82c-.26.59.76.6,1.28.44s.76.52.76.52l.51.26s-.09.43.17.52.83,1.89,1.26,1.89,2.24-1.59,2.24-1.59l.64,1.55c-1.27,1-2.19,1.68-2.19,1.68l.71,1.83-1,17.89-1,21.7,2.12-.14-.71,6.48s-5.22,12.73-5.63,14.23c-1.27,4.65-3.95,14.23-3.95,14.65s-2.82,6.62-2.82,6.62l1.08.52-.37.33s-4.23,1.27-6.34.7-4.37-1.41-5.21-1,0,2.95,1.83,4.64,6.06,2.26,6.06,2.26,1.41.28,1.12,1.41,7.05,1.83,7.47,1,.57-3.8.71-4.5c.07-.36.28-1.29.48-2.13l1.21.58,2.11-5.78s5.35-15.36,5.49-15.78,6.91-13.52,6.91-13.52l6.34,9.15s4.42,7.47,5.54,8.31,7.19,10.85,7.19,10.85,1.64,5.22,1.64,5.64c0,.09.45,0,1.12-.12l-.28,1.67s-3.52,2.25-4.65,2.25-1.12,2.26-1.12,2.26a14.93,14.93,0,0,0,5.21.7,8.48,8.48,0,0,0,5.21-1.41,2.27,2.27,0,0,0,.85.71,33.5,33.5,0,0,0,4.65-1S411.64,254,411.36,252.69Zm-18.3-78.94c-1.45,1.05-3.12,2.28-4.51,3.31-.68-3.94-1.23-7.19-1.42-8.62,0-.24-.1-.48-.16-.72C389.44,170,391.88,172.52,393.06,173.75Z"/><path class="f2f08623-b847-4058-a3c9-79623ac4e880" d="M441.36,142.69a8,8,0,0,0-2-4.93l-.71-1.52.57-.18s-2-3.8-2.67-4.79S424.45,109,424.45,109a84.81,84.81,0,0,0-2.91-9.79,25,25,0,0,0-.19-6.57,10.2,10.2,0,0,0,3.08-2.46C426,88,438.94,76.4,438.35,75s-6.48-8.25-7.55-9.24-3.3-4.82-4.49-4.22A26.16,26.16,0,0,0,424.1,63c-1.7-1.75-5.5-5.61-8.55-8.4a25.27,25.27,0,0,0-5.89-6,11.57,11.57,0,0,0-.71-2.48,4,4,0,0,0-1.49.54,7.82,7.82,0,0,1-.25-1.35c0-.6,1.28-7.77,1-8.71s-2.76-5.42-7.05-3.76c-4.87-.83-9.88,3.82-7,7.19a27.1,27.1,0,0,0,.47,3.08,6.79,6.79,0,0,1,.42,1.12,13.25,13.25,0,0,1-.29,2.82c-.26.59.76.6,1.28.44s.76.52.76.52l.51.26s-.09.43.17.52.83,1.89,1.26,1.89,2.24-1.59,2.24-1.59l.64,1.55c-1.27.95-2.19,1.68-2.19,1.68l.71,1.83-1,17.89-1,21.7,2.12-.14-.71,6.48s-5.22,12.73-5.63,14.23c-1.27,4.65-3.95,14.23-3.95,14.65s-2.82,6.62-2.82,6.62l1.08.52-.37.33s-4.23,1.27-6.34.7-4.37-1.41-5.21-1,0,2.95,1.83,4.64,6.06,2.26,6.06,2.26,1.41.28,1.12,1.41,7.05,1.83,7.47,1,.57-3.8.71-4.5c.07-.36.28-1.29.48-2.13l1.21.58,2.11-5.78s5.35-15.36,5.49-15.78,6.91-13.52,6.91-13.52l6.34,9.15s4.42,7.47,5.54,8.31,7.19,10.85,7.19,10.85,1.64,5.22,1.64,5.64c0,.09.45,0,1.12-.12l-.28,1.67s-3.52,2.25-4.65,2.25-1.12,2.26-1.12,2.26a14.93,14.93,0,0,0,5.21.7,8.48,8.48,0,0,0,5.21-1.41,2.27,2.27,0,0,0,.85.71,33.5,33.5,0,0,0,4.65-1S441.64,144,441.36,142.69Zm-18.3-78.94c-1.45,1-3.12,2.28-4.51,3.31-.68-3.94-1.23-7.19-1.42-8.62,0-.24-.1-.48-.16-.72C419.44,60,421.88,62.52,423.06,63.75Z"/><path class="f2f08623-b847-4058-a3c9-79623ac4e880" d="M375.35,170.89c-1.06-.58-3.77-.39-3.77-.39l-.1.36c-4.24-1.85-6.93-7.15-10.6-9.12-1.54-.83-2.77-1.58-3.66-2.14l4.63-1.28s-.49-11.29-4.11-18.61c3.51-1.67,10.11-4.85,10.75-5.56.87-1,.1-3-.1-4a78.65,78.65,0,0,0-4.54-10c-.58-.58-2.51.48-2.51.48s-5.51-7.93-5.51-8.7-1.65-6.67-2.71-7.83a3.59,3.59,0,0,0-1.76-1l-.86-1.43-.87.21a5.8,5.8,0,0,1-.27-.65c4.83-4.92,4.66-7.42,3.11-11.54-1-2.55-4-6.31-9.28-4.9-6.33.52-6.39,6.88-4.9,6.95.09,1.13.29,2.39.29,2.39a4.89,4.89,0,0,1-1.22,2.13c-.47.4,1.19,1,1.19,1l.2.65.45.35.06.68a12.27,12.27,0,0,1,.71,1.61c.26.71,2.67.06,2.67.06l.91,2.07s-.23.36-.57,1c-.7,0-1.6,0-1.76.31-.25.52-.77,2.58-.12,2.32.14,0,.33-.12.54-.18-1.22,2.36-2.59,5.4-2.73,7.34,0,.38-.52,9.08-.61,9.47a80.71,80.71,0,0,1-6.06,6.67c-.29.1,0,.77,0,.77l-.87.39A38.82,38.82,0,0,0,327.5,134a5.39,5.39,0,0,0-.29,2.51c.1.39.87,0,.87,0a4.3,4.3,0,0,1,.39.87c.1.39.58,1,.77.29.2.29.58.68.87-.09.29.38.58.19.58-.2s-.48-1.06.48-1.54a18.68,18.68,0,0,0,3.1-3A15.14,15.14,0,0,0,336.2,134c.26.06,1.56-1.47,2.42-2.52l-.36,9H339l-4.83,16.88,3.58.83a5.07,5.07,0,0,1-.34,1.12c-.63.93-.27,4.63-.27,4.63s-1.18,14-2.68,17.27a2.57,2.57,0,0,0-.18.79l-.1,0c-.47,1.43-6.29,2.35-6.29,2.35s-2.5-.33-2.57,1c0,.68,2,2,3.63,2.43a38.2,38.2,0,0,0,6.18.26,4.51,4.51,0,0,1,2.22.22,3.9,3.9,0,0,0,2.17.13s.36-2.88.38-3.17a14,14,0,0,0-.75-2.06c.22-4.1,2.59-8.66,4.14-15a31.27,31.27,0,0,0,.6-6.2s.4-.89.95-2.21l1.38.5,2.14-.71a3.82,3.82,0,0,0,.18.52c.38,1.8,1,2.83,2.06,3.22,1.21.85,15.71,8.63,19.51,12.35l-.14.48s.58,1.74.87,3.09a14.41,14.41,0,0,1-.42,4.93c-.2.39.48,1.83,1.06,1.83s1.87-.77,2.84-2.89.86-5.22,1.15-6,1.17-3.09,1.46-3.77S376.41,171.47,375.35,170.89Zm-19.91-49.5a69.8,69.8,0,0,0,.29-7.44c0-.29,4.06,6.67,4.06,6.67l-4.06,1.74S355.15,122.36,355.44,121.39Z"/><path class="f2f08623-b847-4058-a3c9-79623ac4e880" d="M195.35,220.89c-1.06-.58-3.77-.39-3.77-.39l-.1.36c-4.24-1.85-6.93-7.15-10.6-9.12-1.54-.83-2.77-1.58-3.66-2.14l4.63-1.28s-.49-11.29-4.11-18.61c3.51-1.67,10.11-4.85,10.75-5.56.87-1,.1-3-.1-4a78.65,78.65,0,0,0-4.54-10.05c-.58-.58-2.51.48-2.51.48s-5.51-7.93-5.51-8.7-1.65-6.67-2.71-7.83a3.59,3.59,0,0,0-1.76-1l-.86-1.43-.87.21a5.8,5.8,0,0,1-.27-.65c4.83-4.92,4.66-7.42,3.11-11.54-.95-2.55-4-6.31-9.28-4.9-6.33.52-6.39,6.88-4.9,7,.09,1.13.29,2.39.29,2.39a4.89,4.89,0,0,1-1.22,2.13c-.47.4,1.19,1,1.19,1l.2.65.45.35.06.68a12.27,12.27,0,0,1,.71,1.61c.26.71,2.67.06,2.67.06l.91,2.07s-.23.36-.57,1c-.7,0-1.6,0-1.76.31-.25.52-.77,2.58-.12,2.32l.54-.18c-1.22,2.36-2.59,5.4-2.73,7.34,0,.38-.52,9.08-.61,9.47a80.71,80.71,0,0,1-6.06,6.67c-.29.1,0,.77,0,.77l-.87.39A38.82,38.82,0,0,0,147.5,184a5.39,5.39,0,0,0-.29,2.51c.1.39.87,0,.87,0a4.3,4.3,0,0,1,.39.87c.1.39.58,1,.77.29.2.29.58.68.87-.09.29.38.58.19.58-.2s-.48-1.06.48-1.54a18.68,18.68,0,0,0,3.1-3A15.14,15.14,0,0,0,156.2,184c.26.06,1.56-1.47,2.42-2.52l-.36,9H159l-4.83,16.88,3.58.83a5.07,5.07,0,0,1-.34,1.12c-.63.93-.27,4.63-.27,4.63s-1.18,14-2.68,17.27a2.57,2.57,0,0,0-.18.79l-.1,0c-.47,1.43-6.29,2.35-6.29,2.35s-2.5-.33-2.57,1c0,.68,2,2,3.63,2.43a38.2,38.2,0,0,0,6.18.26,4.51,4.51,0,0,1,2.22.22,3.9,3.9,0,0,0,2.17.13s.36-2.88.38-3.17a14,14,0,0,0-.75-2.06c.22-4.1,2.59-8.66,4.14-15a31.27,31.27,0,0,0,.6-6.2s.4-.89.95-2.21l1.38.5,2.14-.71a3.82,3.82,0,0,0,.18.52c.38,1.8,1,2.83,2.06,3.22,1.21.85,15.71,8.63,19.51,12.35l-.14.48s.58,1.74.87,3.09a14.41,14.41,0,0,1-.42,4.93c-.2.39.48,1.83,1.06,1.83s1.87-.77,2.84-2.89.86-5.22,1.15-6,1.17-3.09,1.46-3.77S196.41,221.47,195.35,220.89Zm-19.91-49.5a69.8,69.8,0,0,0,.29-7.44c0-.29,4.06,6.67,4.06,6.67l-4.06,1.74S175.15,172.36,175.44,171.39Z"/><path class="f2f08623-b847-4058-a3c9-79623ac4e880" d="M332.35,134.89c-1.06-.58-3.77-.39-3.77-.39l-.1.36c-4.24-1.85-6.93-7.15-10.6-9.12-1.54-.83-2.77-1.58-3.66-2.14l4.63-1.28s-.49-11.29-4.11-18.61c3.51-1.67,10.11-4.85,10.75-5.56.87-1,.1-3-.1-4a78.65,78.65,0,0,0-4.54-10c-.58-.58-2.51.48-2.51.48s-5.51-7.93-5.51-8.7-1.65-6.67-2.71-7.83a3.59,3.59,0,0,0-1.76-1l-.86-1.43-.87.21a5.8,5.8,0,0,1-.27-.65c4.83-4.92,4.66-7.42,3.11-11.54-1-2.55-4-6.31-9.28-4.9-6.33.52-6.39,6.88-4.9,7,.09,1.13.29,2.39.29,2.39a4.89,4.89,0,0,1-1.22,2.13c-.47.4,1.19,1,1.19,1l.2.65.45.35.06.68a12.27,12.27,0,0,1,.71,1.61c.26.71,2.67.06,2.67.06l.91,2.07s-.23.36-.57,1c-.7,0-1.6,0-1.76.31-.25.52-.77,2.58-.12,2.32.14,0,.33-.12.54-.18-1.22,2.36-2.59,5.4-2.73,7.34,0,.38-.52,9.08-.61,9.47a80.71,80.71,0,0,1-6.06,6.67c-.29.1,0,.77,0,.77l-.87.39A38.82,38.82,0,0,0,284.5,98a5.39,5.39,0,0,0-.29,2.51c.1.39.87,0,.87,0a4.3,4.3,0,0,1,.39.87c.1.39.58,1,.77.29.2.29.58.68.87-.09.29.38.58.19.58-.2s-.48-1.06.48-1.54a18.68,18.68,0,0,0,3.1-3A15.14,15.14,0,0,0,293.2,98c.26.06,1.56-1.47,2.42-2.52l-.36,9H296l-4.83,16.88,3.58.83a5.07,5.07,0,0,1-.34,1.12c-.63.93-.27,4.63-.27,4.63s-1.18,14-2.68,17.27a2.57,2.57,0,0,0-.18.79l-.1,0c-.47,1.43-6.29,2.35-6.29,2.35s-2.5-.33-2.57,1c0,.68,2,2,3.63,2.43a38.2,38.2,0,0,0,6.18.26,4.51,4.51,0,0,1,2.22.22,3.9,3.9,0,0,0,2.17.13s.36-2.88.38-3.17a14,14,0,0,0-.75-2.06c.22-4.1,2.59-8.66,4.14-15a31.27,31.27,0,0,0,.6-6.2s.4-.89.95-2.21l1.38.5,2.14-.71a3.82,3.82,0,0,0,.18.52c.38,1.8,1,2.83,2.06,3.22,1.21.85,15.71,8.63,19.51,12.35l-.14.48s.58,1.74.87,3.09a14.41,14.41,0,0,1-.42,4.93c-.2.39.48,1.83,1.06,1.83s1.87-.77,2.84-2.89.86-5.22,1.15-6,1.17-3.09,1.46-3.77S333.41,135.47,332.35,134.89Zm-19.91-49.5a69.8,69.8,0,0,0,.29-7.44c0-.29,4.06,6.67,4.06,6.67l-4.06,1.74S312.15,86.36,312.44,85.39Z"/></g></g></svg>